<svg width="184" height="40" viewBox="0 0 184 40" fill="none" xmlns="http://www.w3.org/2000/svg">
<mask id="mask0_653_1564" style="mask-type:alpha" maskUnits="userSpaceOnUse" x="0" y="-1" width="184" height="41">
<path d="M0.0202484 0.067955C0.00224983 0.107498 -0.00374971 9.10121 0.00224983 20.0552L0.0202484 39.9691L4.09993 39.986C6.34376 39.9917 8.26961 39.986 8.3716 39.9691L8.56959 39.9352L8.58759 28.0886C8.59359 21.4111 8.62358 16.2984 8.65358 16.3662C8.67758 16.4397 8.72558 16.4962 8.75557 16.4962C8.78557 16.4962 8.80957 16.547 8.80957 16.6035C8.80957 16.6657 8.82757 16.7221 8.85757 16.7334C8.91156 16.756 9.34953 17.4453 9.34953 17.5187C9.34953 17.5469 9.37953 17.5695 9.40952 17.5695C9.44552 17.5695 9.46952 17.6204 9.46952 17.6825C9.46952 17.7447 9.49952 17.7955 9.52952 17.7955C9.56551 17.7955 9.58951 17.8351 9.58951 17.8803C9.58951 17.9255 9.61951 17.965 9.64951 17.965C9.6855 17.965 9.7095 18.0158 9.7095 18.078C9.7095 18.1401 9.7275 18.191 9.7575 18.191C9.7815 18.191 9.87749 18.3322 9.97948 18.5017C10.0755 18.6712 10.1775 18.8124 10.2015 18.8124C10.2255 18.8124 10.2495 18.8632 10.2495 18.9254C10.2495 18.9875 10.2795 19.0384 10.3095 19.0384C10.3455 19.0384 10.3694 19.0892 10.3694 19.1514C10.3694 19.2135 10.3994 19.2643 10.4294 19.2643C10.4654 19.2643 10.4894 19.3039 10.4894 19.3491C10.4894 19.3943 10.5194 19.4338 10.5494 19.4338C10.5854 19.4338 10.6094 19.4847 10.6094 19.5468C10.6094 19.6089 10.6334 19.6598 10.6634 19.6598C10.6934 19.6598 10.7474 19.7332 10.7894 19.8293C10.8314 19.9197 10.8854 19.9988 10.9094 19.9988C10.9334 19.9988 10.9994 20.1117 11.0654 20.253C11.1254 20.3942 11.1974 20.5072 11.2214 20.5072C11.2454 20.5072 11.2694 20.5524 11.2694 20.6089C11.2694 20.6654 11.3234 20.7445 11.3894 20.7897C11.4554 20.8349 11.5094 20.9026 11.5094 20.9365C11.5094 21.0326 11.7073 21.3546 11.7673 21.3546C11.7913 21.3546 11.8093 21.4054 11.8093 21.4676C11.8093 21.5297 11.8393 21.5806 11.8693 21.5806C11.9053 21.5806 11.9293 21.6201 11.9293 21.6653C11.9293 21.7105 11.9593 21.75 11.9893 21.75C12.0253 21.75 12.0493 21.8009 12.0493 21.863C12.0493 21.9252 12.0793 21.976 12.1093 21.976C12.1453 21.976 12.1693 22.0212 12.1693 22.0777C12.1693 22.1342 12.2233 22.2133 12.2893 22.2585C12.3553 22.3037 12.4093 22.3828 12.4093 22.4393C12.4093 22.4958 12.4333 22.5409 12.4633 22.5409C12.4933 22.5409 12.5353 22.6031 12.5533 22.6822C12.5773 22.7613 12.6193 22.8234 12.6493 22.8234C12.6853 22.8234 12.7093 22.8686 12.7093 22.9251C12.7093 22.9816 12.7633 23.0607 12.8293 23.1059C12.8953 23.1511 12.9493 23.2302 12.9493 23.2867C12.9493 23.3431 12.9792 23.3883 13.0092 23.3883C13.0452 23.3883 13.0692 23.4222 13.0692 23.4674C13.0692 23.5522 13.2972 23.9533 13.3752 24.0098C13.3932 24.0267 13.4892 24.1736 13.5852 24.3318C13.6752 24.4956 13.7772 24.6312 13.8012 24.6312C13.8252 24.6312 13.8492 24.682 13.8492 24.7442C13.8492 24.8063 13.8792 24.8572 13.9092 24.8572C13.9452 24.8572 13.9692 24.8911 13.9692 24.9363C13.9692 25.0266 14.1912 25.4051 14.3051 25.5181C14.3471 25.5577 14.4131 25.665 14.4611 25.7611C14.5031 25.8514 14.5571 25.9305 14.5811 25.9305C14.6111 25.9305 14.6291 25.987 14.6291 26.0605C14.6291 26.1283 14.6831 26.2243 14.7491 26.2695C14.8151 26.3147 14.8691 26.3938 14.8691 26.4503C14.8691 26.5068 14.8931 26.552 14.9171 26.552C14.9411 26.552 15.0431 26.6932 15.1391 26.8627C15.2411 27.0322 15.3371 27.1734 15.3671 27.1734C15.3911 27.1734 15.4091 27.2242 15.4091 27.2864C15.4091 27.3485 15.4331 27.3994 15.4571 27.3994C15.4871 27.3994 15.5411 27.4897 15.589 27.5971C15.637 27.7044 15.691 27.7948 15.721 27.7948C15.745 27.7948 15.769 27.8457 15.769 27.9078C15.769 27.9699 15.793 28.0208 15.817 28.0208C15.841 28.0208 15.943 28.162 16.039 28.3315C16.141 28.501 16.237 28.6422 16.267 28.6422C16.291 28.6422 16.309 28.7157 16.309 28.8117C16.309 28.9021 16.285 28.9812 16.249 28.9812C16.219 28.9812 16.189 29.0207 16.189 29.0659C16.189 29.1111 16.165 29.1506 16.129 29.1506C16.099 29.1506 16.069 29.2015 16.069 29.258C16.069 29.3201 16.051 29.3766 16.027 29.3879C15.961 29.4105 15.649 29.8738 15.649 29.9416C15.649 29.9698 15.625 29.998 15.589 29.998C15.559 29.998 15.5291 30.0489 15.5291 30.111C15.5291 30.1732 15.5051 30.224 15.4691 30.224C15.4391 30.224 15.4091 30.2749 15.4091 30.337C15.4091 30.3991 15.3851 30.45 15.3491 30.45C15.3191 30.45 15.2891 30.4895 15.2891 30.5347C15.2891 30.5799 15.2711 30.6195 15.2471 30.6195C15.2171 30.6195 15.1451 30.7212 15.0851 30.8454C15.0191 30.9697 14.9471 31.0714 14.9171 31.0714C14.8931 31.0714 14.8691 31.1223 14.8691 31.1844C14.8691 31.2465 14.8451 31.2974 14.8091 31.2974C14.7791 31.2974 14.7491 31.3369 14.7491 31.3821C14.7491 31.4273 14.7251 31.4669 14.6891 31.4669C14.6591 31.4669 14.6291 31.5177 14.6291 31.5799C14.6291 31.642 14.6051 31.6928 14.5691 31.6928C14.5391 31.6928 14.5091 31.7437 14.5091 31.8058C14.5091 31.868 14.4851 31.9188 14.4551 31.9188C14.4251 31.9188 14.3291 32.06 14.2332 32.2295C14.1372 32.399 14.0412 32.5402 14.0172 32.5402C13.9872 32.5402 13.9692 32.5911 13.9692 32.6532C13.9692 32.7154 13.9452 32.7662 13.9092 32.7662C13.8792 32.7662 13.8492 32.8058 13.8492 32.851C13.8492 32.8961 13.8252 32.9357 13.7892 32.9357C13.7592 32.9357 13.7292 32.9752 13.7292 33.0204C13.7292 33.0713 13.6992 33.1391 13.6692 33.1786C13.5432 33.3198 13.3092 33.6758 13.3092 33.7266C13.3092 33.7605 13.2852 33.7831 13.2492 33.7831C13.2192 33.7831 13.1892 33.8339 13.1892 33.8961C13.1892 33.9582 13.1652 34.0091 13.1292 34.0091C13.0992 34.0091 13.0692 34.0599 13.0692 34.1221C13.0692 34.1842 13.0452 34.235 13.0092 34.235C12.9792 34.235 12.9493 34.2746 12.9493 34.3198C12.9493 34.365 12.9313 34.4045 12.9073 34.4045C12.8773 34.4045 12.7933 34.5345 12.7093 34.6926C12.6313 34.8508 12.5293 35.0033 12.4873 35.0372C12.4453 35.0711 12.4093 35.1333 12.4093 35.1728C12.4093 35.218 12.3853 35.2519 12.3493 35.2519C12.3193 35.2519 12.2893 35.3028 12.2893 35.3649C12.2893 35.427 12.2653 35.4779 12.2293 35.4779C12.1993 35.4779 12.1693 35.5287 12.1693 35.5909C12.1693 35.653 12.1453 35.7039 12.1213 35.7039C12.0913 35.7039 11.9893 35.8451 11.8993 36.0146C11.8033 36.1841 11.7013 36.3253 11.6773 36.3253C11.6534 36.3253 11.6294 36.3761 11.6294 36.4383C11.6294 36.5004 11.6054 36.5513 11.5694 36.5513C11.5394 36.5513 11.5094 36.5908 11.5094 36.636C11.5094 36.6812 11.4854 36.7207 11.4494 36.7207C11.4194 36.7207 11.3894 36.7716 11.3894 36.8337C11.3894 36.8959 11.3654 36.9467 11.3294 36.9467C11.2994 36.9467 11.2694 36.9976 11.2694 37.0597C11.2694 37.1218 11.2454 37.1727 11.2214 37.1727C11.1914 37.1727 11.1314 37.2405 11.0834 37.3252C11.0354 37.4156 10.9634 37.5173 10.9274 37.5568C10.8854 37.5964 10.8494 37.6698 10.8494 37.715C10.8494 37.7602 10.8254 37.7941 10.7894 37.7941C10.7594 37.7941 10.7294 37.8393 10.7294 37.8958C10.7294 37.9523 10.6754 38.0314 10.6094 38.0766C10.5434 38.1218 10.4894 38.2009 10.4894 38.2574C10.4894 38.3138 10.4654 38.359 10.4294 38.359C10.3994 38.359 10.3694 38.4099 10.3694 38.472C10.3694 38.5342 10.3455 38.585 10.3095 38.585C10.2795 38.585 10.2495 38.6246 10.2495 38.6698C10.2495 38.7149 10.2255 38.7545 10.2015 38.7545C10.1715 38.7545 10.0995 38.8618 10.0335 38.9918C9.97348 39.1273 9.90749 39.246 9.88949 39.2629C9.87149 39.2799 9.82349 39.359 9.7755 39.4437C9.7275 39.5341 9.6675 39.6019 9.63751 39.6019C9.61351 39.6019 9.58951 39.6527 9.58951 39.7092C9.58951 39.7714 9.55351 39.8335 9.51752 39.8448C9.45752 39.8674 9.46352 39.89 9.52952 39.9352C9.58951 39.9747 11.1254 39.9973 14.3951 39.9973C18.9728 39.9973 19.1768 39.9917 19.2968 39.89C19.3688 39.8335 19.4288 39.7431 19.4288 39.6923C19.4288 39.6414 19.4587 39.6019 19.4887 39.6019C19.5247 39.6019 19.5487 39.551 19.5487 39.4889C19.5487 39.4268 19.5787 39.3759 19.6087 39.3759C19.6447 39.3759 19.6687 39.3364 19.6687 39.2912C19.6687 39.246 19.6987 39.2064 19.7287 39.2064C19.7647 39.2064 19.7887 39.1556 19.7887 39.0935C19.7887 39.0313 19.8127 38.9805 19.8367 38.9805C19.8667 38.9805 19.9387 38.8788 19.9987 38.7545C20.0587 38.6302 20.1307 38.5285 20.1607 38.5285C20.1847 38.5285 20.2087 38.489 20.2087 38.4438C20.2087 38.3986 20.2387 38.359 20.2687 38.359C20.3047 38.359 20.3287 38.3082 20.3287 38.2461C20.3287 38.1839 20.3587 38.1331 20.3887 38.1331C20.4247 38.1331 20.4487 38.0822 20.4487 38.0201C20.4487 37.9579 20.4727 37.9071 20.4967 37.9071C20.5267 37.9071 20.6287 37.7659 20.7187 37.5964C20.8146 37.4269 20.9166 37.2857 20.9406 37.2857C20.9646 37.2857 20.9886 37.2348 20.9886 37.1727C20.9886 37.1105 21.0186 37.0597 21.0486 37.0597C21.0846 37.0597 21.1086 37.0258 21.1086 36.9806C21.1086 36.9354 21.1506 36.8846 21.2046 36.8676C21.3426 36.8168 21.3486 36.8224 21.3486 36.9411C21.3486 37.0032 21.3666 37.0597 21.3966 37.071C21.4506 37.0936 21.8886 37.7828 21.8886 37.8563C21.8886 37.8845 21.9186 37.9071 21.9486 37.9071C21.9846 37.9071 22.0086 37.9579 22.0086 38.0201C22.0086 38.0822 22.0385 38.1331 22.0685 38.1331C22.1045 38.1331 22.1285 38.1726 22.1285 38.2178C22.1285 38.263 22.1585 38.3025 22.1885 38.3025C22.2245 38.3025 22.2485 38.3421 22.2485 38.3873C22.2485 38.4381 22.2785 38.5059 22.3085 38.5455C22.4285 38.6811 22.6505 39.0144 22.7345 39.1951C22.7765 39.2912 22.8365 39.3759 22.8605 39.3759C22.8905 39.3759 22.9085 39.4268 22.9085 39.4889C22.9085 39.551 22.9385 39.6019 22.9685 39.6019C23.0045 39.6019 23.0285 39.6414 23.0285 39.6866C23.0285 39.7318 23.0585 39.7714 23.0885 39.7714C23.1245 39.7714 23.1485 39.8053 23.1485 39.8505C23.1485 39.89 23.2085 39.9408 23.2865 39.9634C23.5384 40.0256 32.8317 40.003 32.9277 39.9352C32.9937 39.89 32.9997 39.8674 32.9457 39.8448C32.9037 39.8335 32.8677 39.7714 32.8677 39.7092C32.8677 39.6527 32.8437 39.6019 32.8077 39.6019C32.7777 39.6019 32.7477 39.551 32.7477 39.4946C32.7477 39.4324 32.7297 39.3759 32.7057 39.3646C32.6397 39.342 32.3278 38.8788 32.3278 38.811C32.3278 38.7827 32.3038 38.7545 32.2678 38.7545C32.2378 38.7545 32.2078 38.7036 32.2078 38.6415C32.2078 38.5794 32.1838 38.5285 32.1478 38.5285C32.1178 38.5285 32.0878 38.489 32.0878 38.4438C32.0878 38.3986 32.0638 38.359 32.0278 38.359C31.9978 38.359 31.9678 38.3082 31.9678 38.2461C31.9678 38.1839 31.9498 38.1331 31.9258 38.1331C31.8958 38.1331 31.7998 37.9918 31.7038 37.8224C31.6078 37.6529 31.5118 37.5116 31.4818 37.5116C31.4518 37.5116 31.4278 37.4608 31.4278 37.3987C31.4278 37.3365 31.4038 37.2857 31.3678 37.2857C31.3378 37.2857 31.3078 37.2348 31.3078 37.1727C31.3078 37.1105 31.2838 37.0597 31.2478 37.0597C31.2178 37.0597 31.1878 37.0202 31.1878 36.975C31.1878 36.9298 31.1698 36.8902 31.1458 36.8902C31.1159 36.8902 31.0439 36.7885 30.9839 36.6642C30.9179 36.54 30.8459 36.4383 30.8159 36.4383C30.7919 36.4383 30.7679 36.3874 30.7679 36.3253C30.7679 36.2631 30.7439 36.2123 30.7079 36.2123C30.6779 36.2123 30.6479 36.1728 30.6479 36.1276C30.6479 36.0824 30.6239 36.0428 30.5879 36.0428C30.5579 36.0428 30.5279 35.992 30.5279 35.9298C30.5279 35.8677 30.5039 35.8168 30.4679 35.8168C30.4379 35.8168 30.4079 35.766 30.4079 35.7039C30.4079 35.6417 30.3899 35.5909 30.3659 35.5909C30.3359 35.5909 30.2399 35.4496 30.1379 35.2802C30.0419 35.1107 29.9399 34.9694 29.9159 34.9694C29.8919 34.9694 29.8679 34.9186 29.8679 34.8565C29.8679 34.7943 29.8439 34.7435 29.808 34.7435C29.778 34.7435 29.748 34.7039 29.748 34.6587C29.748 34.6135 29.724 34.574 29.688 34.574C29.658 34.574 29.628 34.5232 29.628 34.461C29.628 34.3989 29.604 34.348 29.568 34.348C29.538 34.348 29.508 34.2972 29.508 34.2407C29.508 34.1785 29.49 34.1221 29.466 34.1108C29.4 34.0882 29.088 33.6249 29.088 33.5571C29.088 33.5289 29.064 33.5006 29.028 33.5006C28.998 33.5006 28.968 33.4498 28.968 33.3876C28.968 33.3255 28.944 33.2747 28.908 33.2747C28.878 33.2747 28.848 33.2351 28.848 33.1899C28.848 33.1447 28.824 33.1052 28.788 33.1052C28.758 33.1052 28.728 33.0543 28.728 32.9922C28.728 32.93 28.704 32.8792 28.668 32.8792C28.638 32.8792 28.608 32.851 28.608 32.8227C28.608 32.7888 28.5121 32.6193 28.3981 32.4499C28.2841 32.2804 28.1881 32.1165 28.1881 32.0883C28.1881 32.0544 28.1641 32.0318 28.1281 32.0318C28.0981 32.0318 28.0681 31.9866 28.0681 31.9301C28.0681 31.8736 28.0141 31.7945 27.9481 31.7493C27.8821 31.7041 27.8281 31.6363 27.8281 31.6025C27.8281 31.5234 27.5341 31.0149 27.4261 30.9132C27.3841 30.8737 27.3301 30.7777 27.3121 30.6986C27.2941 30.6251 27.2521 30.563 27.2222 30.563C27.1922 30.563 27.1682 30.5121 27.1682 30.45C27.1682 30.3878 27.1442 30.337 27.1142 30.337C27.0842 30.337 27.0302 30.2579 26.9882 30.1675C26.9462 30.0715 26.8922 29.998 26.8622 29.998C26.8322 29.998 26.8082 29.9642 26.8082 29.919C26.8082 29.8794 26.7662 29.8116 26.7182 29.7721C26.6702 29.7325 26.6282 29.6534 26.6282 29.5969C26.6282 29.5348 26.6042 29.4896 26.5742 29.4896C26.5442 29.4896 26.4902 29.4105 26.4482 29.3201C26.4062 29.2241 26.3522 29.1506 26.3222 29.1506C26.2922 29.1506 26.2682 29.0885 26.2682 29.0151C26.2682 28.9416 26.2322 28.8625 26.1962 28.8456C26.1362 28.8173 26.1362 28.806 26.1962 28.7778C26.2322 28.7608 26.2682 28.6987 26.2682 28.6366C26.2682 28.5801 26.2982 28.5292 26.3282 28.5292C26.3642 28.5292 26.3882 28.4784 26.3882 28.4162C26.3882 28.3541 26.4062 28.3033 26.4362 28.3033C26.4602 28.3033 26.5202 28.2185 26.5622 28.1168C26.6102 28.0208 26.6822 27.9078 26.7122 27.8683C26.8982 27.6705 26.9282 27.6253 26.9282 27.5406C26.9282 27.4954 26.9582 27.4559 26.9882 27.4559C27.0242 27.4559 27.0482 27.4163 27.0482 27.3711C27.0482 27.3259 27.0782 27.2864 27.1082 27.2864C27.1442 27.2864 27.1682 27.2355 27.1682 27.1734C27.1682 27.1112 27.1982 27.0604 27.2281 27.0604C27.2641 27.0604 27.2881 27.0096 27.2881 26.9474C27.2881 26.8853 27.3121 26.8344 27.3361 26.8344C27.3601 26.8344 27.4621 26.6932 27.5581 26.5237C27.6601 26.3542 27.7561 26.213 27.7861 26.213C27.8101 26.213 27.8281 26.1622 27.8281 26.1C27.8281 26.0379 27.8581 25.987 27.8881 25.987C27.9241 25.987 27.9481 25.9362 27.9481 25.874C27.9481 25.8119 27.9781 25.7611 28.0081 25.7611C28.0441 25.7611 28.0681 25.7215 28.0681 25.6763C28.0681 25.6311 28.0981 25.5916 28.1281 25.5916C28.1641 25.5916 28.1881 25.5407 28.1881 25.4842C28.1881 25.4221 28.2061 25.3656 28.2361 25.3543C28.2961 25.3317 28.608 24.8685 28.608 24.8007C28.608 24.7724 28.638 24.7442 28.668 24.7442C28.704 24.7442 28.728 24.6933 28.728 24.6312C28.728 24.569 28.746 24.5182 28.776 24.5182C28.8 24.5182 28.86 24.4335 28.908 24.3318C28.95 24.2357 29.016 24.1228 29.04 24.0945C29.136 23.9872 29.508 23.377 29.508 23.3262C29.508 23.298 29.538 23.2754 29.568 23.2754C29.604 23.2754 29.628 23.2245 29.628 23.1624C29.628 23.1002 29.658 23.0494 29.688 23.0494C29.724 23.0494 29.748 22.9985 29.748 22.9364C29.748 22.8743 29.778 22.8234 29.808 22.8234C29.8439 22.8234 29.8679 22.7839 29.8679 22.7387C29.8679 22.6935 29.8919 22.6539 29.9159 22.6539C29.9459 22.6539 30.0179 22.5522 30.0779 22.428C30.1379 22.3037 30.2099 22.202 30.2399 22.202C30.2639 22.202 30.2879 22.1511 30.2879 22.089C30.2879 22.0269 30.3179 21.976 30.3479 21.976C30.3839 21.976 30.4079 21.9365 30.4079 21.8913C30.4079 21.8461 30.4379 21.8065 30.4679 21.8065C30.5039 21.8065 30.5279 21.7557 30.5279 21.6935C30.5279 21.6314 30.5579 21.5806 30.5879 21.5806C30.6239 21.5806 30.6479 21.5523 30.6479 21.5241C30.6479 21.4563 30.9599 20.993 31.0259 20.9704C31.0499 20.9591 31.0679 20.9026 31.0679 20.8405C31.0679 20.784 31.0979 20.7332 31.1278 20.7332C31.1638 20.7332 31.1878 20.6823 31.1878 20.6202C31.1878 20.558 31.2178 20.5072 31.2478 20.5072C31.2838 20.5072 31.3078 20.4676 31.3078 20.4224C31.3078 20.3773 31.3378 20.3377 31.3678 20.3377C31.4038 20.3377 31.4278 20.2869 31.4278 20.2247C31.4278 20.1626 31.4518 20.1117 31.4758 20.1117C31.5058 20.1117 31.5778 20.01 31.6378 19.8858C31.6978 19.7615 31.7638 19.6598 31.7878 19.6598C31.8058 19.6598 31.8598 19.5694 31.9078 19.4621C31.9558 19.3547 32.0098 19.2643 32.0398 19.2643C32.0638 19.2643 32.0878 19.2135 32.0878 19.1514C32.0878 19.0892 32.1178 19.0384 32.1478 19.0384C32.1838 19.0384 32.2078 18.9988 32.2078 18.9536C32.2078 18.9084 32.2378 18.8689 32.2678 18.8689C32.3038 18.8689 32.3278 18.8293 32.3278 18.7785C32.3278 18.7333 32.3638 18.6542 32.4058 18.6147C32.5917 18.4169 32.6277 18.3604 32.6277 18.2757C32.6277 18.2305 32.6577 18.191 32.6877 18.191C32.7237 18.191 32.7477 18.1514 32.7477 18.1062C32.7477 18.061 32.7777 18.0215 32.8077 18.0215C32.8437 18.0215 32.8677 17.9706 32.8677 17.9085C32.8677 17.8464 32.8977 17.7955 32.9277 17.7955C32.9637 17.7955 32.9877 17.7447 32.9877 17.6825C32.9877 17.6204 33.0177 17.5695 33.0477 17.5695C33.0837 17.5695 33.1077 17.5413 33.1077 17.5131C33.1077 17.4453 33.4197 16.982 33.4857 16.9594C33.5097 16.9481 33.5277 16.8916 33.5277 16.8295C33.5277 16.773 33.5577 16.7221 33.5877 16.7221C33.6237 16.7221 33.6477 16.6826 33.6477 16.6374C33.6477 16.5922 33.6777 16.5527 33.7076 16.5527C33.7436 16.5527 33.7676 16.5075 33.7676 16.4453C33.7676 16.3888 33.8216 16.3267 33.8876 16.3097C34.0076 16.2815 34.0076 16.3154 34.0196 28.1225L34.0376 39.9691L38.2253 39.986L42.407 39.9973V19.9988V0.000160217H38.2493C34.1636 0.000160217 34.0916 0.000160217 33.9896 0.113148C33.9356 0.175289 33.8876 0.265678 33.8876 0.310875C33.8876 0.356068 33.8636 0.395615 33.8276 0.395615C33.7976 0.395615 33.7676 0.435158 33.7676 0.480354C33.7676 0.525547 33.7496 0.565094 33.7256 0.565094C33.6957 0.565094 33.5997 0.717625 33.4977 0.904053C33.4017 1.09048 33.3057 1.24301 33.2877 1.24301C33.2637 1.24301 33.2157 1.3334 33.1677 1.44074C33.1197 1.54808 33.0657 1.63847 33.0357 1.63847C33.0117 1.63847 32.9877 1.68931 32.9877 1.75145C32.9877 1.81359 32.9637 1.86444 32.9277 1.86444C32.8977 1.86444 32.8677 1.88704 32.8677 1.92093C32.8677 1.94918 32.7717 2.11301 32.6577 2.28249C32.5437 2.45197 32.4477 2.62144 32.4477 2.65534C32.4477 2.68359 32.4237 2.71183 32.3997 2.71183C32.3698 2.71183 32.3158 2.80222 32.2678 2.90956C32.2198 3.0169 32.1658 3.10729 32.1358 3.10729C32.1118 3.10729 32.0878 3.15813 32.0878 3.21462C32.0878 3.27677 32.0698 3.33326 32.0398 3.34456C31.9858 3.36716 31.5478 4.05637 31.5478 4.12981C31.5478 4.15806 31.5238 4.18066 31.4878 4.18066C31.4578 4.18066 31.4278 4.2315 31.4278 4.29364C31.4278 4.35579 31.4038 4.40663 31.3678 4.40663C31.3378 4.40663 31.3078 4.44617 31.3078 4.49137C31.3078 4.53656 31.2838 4.57611 31.2478 4.57611C31.2178 4.57611 31.1878 4.61565 31.1878 4.66085C31.1878 4.71169 31.1578 4.77949 31.1278 4.81903C31.0019 4.96026 30.7679 5.31617 30.7679 5.36702C30.7679 5.40091 30.7439 5.42351 30.7079 5.42351C30.6779 5.42351 30.6479 5.47435 30.6479 5.5365C30.6479 5.59864 30.6239 5.64948 30.5879 5.64948C30.5579 5.64948 30.5279 5.70033 30.5279 5.76247C30.5279 5.82461 30.5039 5.87545 30.4799 5.87545C30.4499 5.87545 30.3239 6.05623 30.1979 6.2822C30.0719 6.50818 29.9219 6.7398 29.8559 6.80194C29.796 6.86409 29.748 6.96012 29.748 7.01662C29.748 7.07311 29.724 7.11831 29.688 7.11831C29.658 7.11831 29.628 7.1635 29.628 7.21999C29.628 7.27649 29.574 7.35558 29.508 7.40077C29.442 7.44596 29.388 7.52505 29.388 7.5759C29.388 7.62674 29.346 7.70018 29.298 7.73973C29.25 7.77927 29.208 7.84706 29.208 7.88661C29.208 7.9318 29.184 7.9657 29.148 7.9657C29.118 7.9657 29.088 8.00525 29.088 8.05044C29.088 8.10129 29.034 8.19168 28.968 8.25947C28.902 8.32726 28.848 8.42895 28.848 8.47979C28.848 8.53628 28.83 8.58713 28.8 8.59842C28.776 8.60407 28.692 8.72836 28.614 8.86959C28.53 9.01083 28.4521 9.13511 28.4341 9.15206C28.3501 9.2142 28.1881 9.49102 28.1881 9.55881C28.1881 9.604 28.1341 9.6718 28.0681 9.71699C28.0021 9.76219 27.9481 9.84128 27.9481 9.89777C27.9481 9.95426 27.9241 9.99946 27.8881 9.99946C27.8581 9.99946 27.8281 10.0503 27.8281 10.1124C27.8281 10.1746 27.8041 10.2254 27.7741 10.2254C27.7441 10.2254 27.7081 10.2706 27.6841 10.3215C27.6661 10.378 27.5701 10.5361 27.4741 10.6774C27.3781 10.8186 27.2941 10.9711 27.2941 11.0163C27.2881 11.0672 27.2341 11.1406 27.1682 11.1858C27.1022 11.231 27.0482 11.3101 27.0482 11.3666C27.0482 11.4231 27.0242 11.4683 26.9882 11.4683C26.9582 11.4683 26.9282 11.5191 26.9282 11.5813C26.9282 11.6434 26.9042 11.6943 26.8682 11.6943C26.8382 11.6943 26.8082 11.7169 26.8082 11.7507C26.8082 11.8016 26.5742 12.1575 26.4482 12.2987C26.4182 12.3383 26.3882 12.4061 26.3882 12.4569C26.3882 12.5021 26.3642 12.5417 26.3282 12.5417C26.2982 12.5417 26.2682 12.5925 26.2682 12.6546C26.2682 12.7168 26.2442 12.7676 26.2082 12.7676C26.1782 12.7676 26.1482 12.8072 26.1482 12.8524C26.1482 12.8976 26.1242 12.9371 26.0882 12.9371C26.0582 12.9371 26.0282 12.9597 26.0282 12.9879C26.0282 13.0614 25.5903 13.7506 25.5363 13.7732C25.5063 13.7845 25.4883 13.841 25.4883 13.9031C25.4883 13.9596 25.4643 14.0105 25.4283 14.0105C25.3983 14.0105 25.3683 14.0613 25.3683 14.1235C25.3683 14.1856 25.3443 14.2364 25.3083 14.2364C25.2783 14.2364 25.2483 14.276 25.2483 14.3212C25.2483 14.3664 25.2303 14.4059 25.2063 14.4059C25.1763 14.4059 25.0503 14.598 24.9243 14.8296C24.7923 15.0612 24.6663 15.2533 24.6363 15.2533C24.6124 15.2533 24.5884 15.3042 24.5884 15.3663C24.5884 15.4285 24.5644 15.4793 24.5404 15.4793C24.5104 15.4793 24.4564 15.5697 24.4084 15.677C24.3604 15.7844 24.3064 15.8747 24.2884 15.8747C24.2644 15.8747 24.1984 15.9764 24.1384 16.1007C24.0784 16.225 24.0064 16.3267 23.9764 16.3267C23.9524 16.3267 23.9284 16.3775 23.9284 16.4397C23.9284 16.5018 23.9044 16.5527 23.8684 16.5527C23.8384 16.5527 23.8084 16.5922 23.8084 16.6374C23.8084 16.6826 23.7844 16.7221 23.7484 16.7221C23.7184 16.7221 23.6884 16.773 23.6884 16.8351C23.6884 16.8973 23.6644 16.9481 23.6284 16.9481C23.5984 16.9481 23.5684 16.9707 23.5684 16.999C23.5684 17.0724 23.1305 17.7616 23.0765 17.7842C23.0465 17.7955 23.0285 17.852 23.0285 17.9142C23.0285 17.9706 23.0045 18.0215 22.9685 18.0215C22.9385 18.0215 22.9085 18.061 22.9085 18.1062C22.9085 18.1514 22.8845 18.191 22.8485 18.191C22.8185 18.191 22.7885 18.2418 22.7885 18.304C22.7885 18.3661 22.7645 18.4169 22.7405 18.4169C22.7105 18.4169 22.6385 18.5186 22.5785 18.6429C22.5185 18.7672 22.4465 18.8689 22.4165 18.8689C22.3925 18.8689 22.3685 18.9084 22.3685 18.9536C22.3685 18.9988 22.3445 19.0384 22.3085 19.0384C22.2785 19.0384 22.2485 19.0892 22.2485 19.1514C22.2485 19.2135 22.2245 19.2643 22.1885 19.2643C22.1585 19.2643 22.1285 19.3152 22.1285 19.3773C22.1285 19.4395 22.1045 19.4903 22.0685 19.4903C22.0385 19.4903 22.0086 19.5299 22.0086 19.5751C22.0086 19.6202 21.9846 19.6598 21.9486 19.6598C21.9186 19.6598 21.8886 19.7106 21.8886 19.7728C21.8886 19.8349 21.8646 19.8858 21.8406 19.8858C21.8106 19.8858 21.7386 19.9875 21.6726 20.1117C21.6126 20.236 21.5406 20.3377 21.5166 20.3377C21.4866 20.3377 21.4686 20.3773 21.4686 20.4224C21.4686 20.4676 21.4446 20.5072 21.4086 20.5072C21.3786 20.5072 21.3486 20.558 21.3486 20.6202C21.3486 20.6936 21.3066 20.7332 21.2286 20.7332C21.1506 20.7332 21.1086 20.6936 21.1086 20.6202C21.1086 20.558 21.0846 20.5072 21.0486 20.5072C21.0186 20.5072 20.9886 20.4846 20.9886 20.4507C20.9886 20.3999 20.7546 20.0439 20.6287 19.9027C20.5987 19.8632 20.5687 19.7954 20.5687 19.7445C20.5687 19.6993 20.5447 19.6598 20.5087 19.6598C20.4787 19.6598 20.4487 19.6089 20.4487 19.5468C20.4487 19.4847 20.4247 19.4338 20.3887 19.4338C20.3587 19.4338 20.3287 19.3943 20.3287 19.3491C20.3287 19.3039 20.3047 19.2643 20.2687 19.2643C20.2387 19.2643 20.2087 19.2135 20.2087 19.1514C20.2087 19.0892 20.1847 19.0384 20.1607 19.0384C20.1367 19.0384 20.0347 18.8971 19.9387 18.7277C19.8487 18.5582 19.7467 18.4169 19.7167 18.4169C19.6927 18.4169 19.6687 18.3661 19.6687 18.304C19.6687 18.2418 19.6447 18.191 19.6087 18.191C19.5787 18.191 19.5487 18.1401 19.5487 18.078C19.5487 18.0158 19.5247 17.965 19.4887 17.965C19.4587 17.965 19.4288 17.9255 19.4288 17.8803C19.4288 17.8351 19.4048 17.7955 19.3688 17.7955C19.3388 17.7955 19.3088 17.7447 19.3088 17.6825C19.3088 17.6204 19.2848 17.5695 19.2608 17.5695C19.2308 17.5695 19.1588 17.4679 19.0928 17.3436C19.0328 17.2193 18.9608 17.1176 18.9368 17.1176C18.9068 17.1176 18.8888 17.0781 18.8888 17.0329C18.8888 16.9877 18.8648 16.9481 18.8288 16.9481C18.7988 16.9481 18.7688 16.8973 18.7688 16.8351C18.7688 16.773 18.7448 16.7221 18.7088 16.7221C18.6788 16.7221 18.6488 16.6713 18.6488 16.6092C18.6488 16.547 18.6248 16.4962 18.5888 16.4962C18.5588 16.4962 18.5288 16.4736 18.5288 16.4397C18.5288 16.3888 18.2948 16.0329 18.1688 15.8917C18.1389 15.8522 18.1089 15.7844 18.1089 15.7335C18.1089 15.6883 18.0849 15.6488 18.0489 15.6488C18.0189 15.6488 17.9889 15.6092 17.9889 15.564C17.9889 15.5188 17.9649 15.4793 17.9289 15.4793C17.8989 15.4793 17.8689 15.4285 17.8689 15.3663C17.8689 15.3042 17.8449 15.2533 17.8089 15.2533C17.7789 15.2533 17.7489 15.2025 17.7489 15.1403C17.7489 15.0782 17.7249 15.0274 17.7009 15.0274C17.6769 15.0274 17.5749 14.8861 17.4789 14.7166C17.3769 14.5472 17.2809 14.4059 17.2569 14.4059C17.2269 14.4059 17.2089 14.3551 17.2089 14.2929C17.2089 14.2308 17.1909 14.18 17.1609 14.18C17.1369 14.18 17.0769 14.0952 17.0289 13.9935C16.9869 13.8975 16.9209 13.7845 16.8969 13.7563C16.801 13.6489 16.429 13.0388 16.429 12.9879C16.429 12.9597 16.405 12.9371 16.369 12.9371C16.339 12.9371 16.309 12.8863 16.309 12.8241C16.309 12.762 16.285 12.7111 16.261 12.7111C16.231 12.7111 16.177 12.6207 16.129 12.5134C16.081 12.4061 16.027 12.3157 16.009 12.3157C15.985 12.3157 15.919 12.214 15.859 12.0897C15.799 11.9654 15.733 11.8637 15.709 11.8637C15.691 11.8637 15.637 11.7733 15.589 11.666C15.5411 11.5587 15.4871 11.4683 15.4571 11.4683C15.4331 11.4683 15.4091 11.4174 15.4091 11.3553C15.4091 11.2932 15.3851 11.2423 15.3491 11.2423C15.3191 11.2423 15.2891 11.2141 15.2891 11.1858C15.2891 11.118 14.9771 10.6548 14.9171 10.6322C14.8871 10.6209 14.8691 10.5644 14.8691 10.5022C14.8691 10.4458 14.8451 10.3949 14.8091 10.3949C14.7791 10.3949 14.7491 10.3441 14.7491 10.2819C14.7491 10.2198 14.7251 10.1689 14.6891 10.1689C14.6591 10.1689 14.6291 10.1294 14.6291 10.0842C14.6291 10.039 14.6051 9.99946 14.5691 9.99946C14.5391 9.99946 14.5091 9.94861 14.5091 9.88647C14.5091 9.82433 14.4911 9.77348 14.4671 9.77348C14.4371 9.77348 14.3411 9.63225 14.2392 9.46277C14.1432 9.29329 14.0412 9.15206 14.0172 9.15206C13.9932 9.15206 13.9692 9.10122 13.9692 9.03907C13.9692 8.97693 13.9452 8.92609 13.9092 8.92609C13.8792 8.92609 13.8492 8.87524 13.8492 8.8131C13.8492 8.75096 13.8252 8.70011 13.7892 8.70011C13.7592 8.70011 13.7292 8.66057 13.7292 8.61537C13.7292 8.57018 13.7052 8.53063 13.6692 8.53063C13.6392 8.53063 13.6092 8.49109 13.6092 8.44589C13.6092 8.36115 13.5732 8.30466 13.3872 8.10694C13.3452 8.06739 13.3092 7.9883 13.3092 7.9431C13.3092 7.89226 13.2852 7.85271 13.2492 7.85271C13.2192 7.85271 13.1892 7.81317 13.1892 7.76797C13.1892 7.72278 13.1652 7.68324 13.1292 7.68324C13.0992 7.68324 13.0692 7.63239 13.0692 7.57025C13.0692 7.50811 13.0452 7.45726 13.0092 7.45726C12.9792 7.45726 12.9493 7.40642 12.9493 7.34428C12.9493 7.28214 12.9253 7.23129 12.9013 7.23129C12.8713 7.23129 12.7693 7.09006 12.6793 6.92058C12.5833 6.7511 12.4813 6.60987 12.4573 6.60987C12.4333 6.60987 12.4093 6.55902 12.4093 6.49688C12.4093 6.43474 12.3853 6.38389 12.3493 6.38389C12.3193 6.38389 12.2893 6.34435 12.2893 6.29915C12.2893 6.25396 12.2653 6.21441 12.2293 6.21441C12.1993 6.21441 12.1693 6.16357 12.1693 6.10143C12.1693 6.03928 12.1453 5.98844 12.1093 5.98844C12.0793 5.98844 12.0493 5.9376 12.0493 5.87545C12.0493 5.81331 12.0313 5.76247 12.0073 5.76247C11.9773 5.76247 11.8813 5.62123 11.7793 5.45176C11.6833 5.28228 11.5814 5.14104 11.5574 5.14104C11.5334 5.14104 11.5094 5.0902 11.5094 5.02806C11.5094 4.96591 11.4854 4.91507 11.4494 4.91507C11.4194 4.91507 11.3894 4.87552 11.3894 4.83033C11.3894 4.78513 11.3654 4.74559 11.3294 4.74559C11.2994 4.74559 11.2694 4.69475 11.2694 4.6326C11.2694 4.57046 11.2454 4.51962 11.2094 4.51962C11.1794 4.51962 11.1494 4.46877 11.1494 4.40663C11.1494 4.34449 11.1254 4.29364 11.1014 4.29364C11.0774 4.29364 10.9754 4.15241 10.8794 3.98293C10.7774 3.81345 10.6814 3.67222 10.6574 3.67222C10.6274 3.67222 10.6094 3.62138 10.6094 3.55923C10.6094 3.49709 10.5854 3.44625 10.5494 3.44625C10.5194 3.44625 10.4894 3.3954 10.4894 3.33326C10.4894 3.27112 10.4654 3.22027 10.4294 3.22027C10.3994 3.22027 10.3694 3.18073 10.3694 3.13553C10.3694 3.09034 10.3455 3.05079 10.3095 3.05079C10.2795 3.05079 10.2495 3.01125 10.2495 2.96605C10.2495 2.88131 10.2195 2.83612 10.0335 2.63839C10.0035 2.59885 9.93148 2.48586 9.88349 2.38417C9.84149 2.28814 9.7815 2.2034 9.7575 2.2034C9.7275 2.2034 9.7095 2.15255 9.7095 2.09041C9.7095 2.02827 9.6915 1.97742 9.6675 1.97742C9.63751 1.97742 9.58951 1.92093 9.55351 1.84749C9.43952 1.62152 9.15154 1.15827 9.10955 1.13002C9.08555 1.11308 9.03155 1.01704 8.98356 0.915352C8.93556 0.819313 8.88157 0.734573 8.85757 0.734573C8.82757 0.734573 8.80957 0.683731 8.80957 0.621586C8.80957 0.559444 8.78557 0.508602 8.74957 0.508602C8.71958 0.508602 8.68958 0.469055 8.68958 0.423862C8.68958 0.378666 8.61759 0.260029 8.52759 0.16964L8.3716 0.000160217H4.20793C0.932178 0.000160217 0.038247 0.0171089 0.0202484 0.067955Z" fill="black"/>
<path d="M48.5273 3.98266V7.96543H50.6212C52.475 7.96543 52.721 7.97673 52.751 8.05582C52.769 8.10666 52.787 13.4905 52.787 20.0267V31.9072L52.655 31.9411C52.577 31.9581 51.6171 31.975 50.5252 31.975H48.5273V35.9861V39.9971H56.9867H65.446V35.9861V31.975H63.4122C62.2903 31.975 61.3364 31.9581 61.2824 31.9411C61.1924 31.9072 61.1864 30.8056 61.1864 20.0154C61.1864 9.79016 61.1984 8.11796 61.2704 8.04452C61.3424 7.97673 61.7083 7.96543 63.4002 7.96543H65.446V3.98266V-0.000110626H56.9867H48.5273V3.98266Z" fill="black"/>
<path d="M71.5469 0.0394287C71.5229 0.0563774 71.5049 9.04445 71.5049 20.0041C71.5049 38.1215 71.5109 39.9293 71.6009 39.9632C71.6549 39.9801 78.3504 39.9971 86.4797 39.9971H101.263V32.0033V24.0095L97.0209 24.0208L92.7732 24.0377L92.7432 27.9923L92.7132 31.9468H86.3837H80.0542L80.0242 15.9875L79.9942 0.0281296L75.7886 0.0111809C73.4787 0.00553131 71.5649 0.0168304 71.5469 0.0394287Z" fill="black"/>
<path d="M106.26 0.0394325C106.2 0.0620308 106.182 4.10695 106.182 19.9985C106.182 38.1215 106.188 39.9293 106.278 39.9632C106.332 39.9801 108.245 39.9971 110.537 39.9971H114.701V34.7489V29.5006L114.929 29.269C115.205 28.9922 115.541 28.6306 115.799 28.3369C115.901 28.2126 116.099 28.0092 116.231 27.8793C116.363 27.755 116.549 27.5516 116.651 27.4273C116.747 27.3031 116.939 27.0997 117.071 26.9697C117.203 26.8455 117.365 26.6703 117.431 26.5856C117.497 26.5008 117.623 26.354 117.713 26.2579L117.875 26.0941L118.301 26.4895C118.529 26.7042 118.721 26.9132 118.721 26.9471C118.721 26.981 118.925 27.1957 119.171 27.4273C119.417 27.6533 119.621 27.868 119.621 27.8962C119.621 27.9245 119.795 28.1166 120.011 28.3199C120.227 28.5233 120.401 28.7097 120.401 28.7267C120.401 28.7662 120.695 29.0769 121.048 29.4102C121.186 29.5458 121.3 29.6701 121.3 29.6871C121.3 29.721 121.432 29.8622 121.828 30.252C121.966 30.3876 122.08 30.5175 122.08 30.5345C122.08 30.5514 122.17 30.6531 122.278 30.7604C122.38 30.8621 122.554 31.0429 122.65 31.1559C122.752 31.2689 122.926 31.4609 123.04 31.5739C123.154 31.6926 123.334 31.8846 123.43 32.0033C123.532 32.1219 123.718 32.3253 123.85 32.4496C123.982 32.5795 124.174 32.7829 124.27 32.9072C124.372 33.0258 124.582 33.2574 124.744 33.41C124.9 33.5681 125.104 33.7828 125.194 33.8902C125.278 34.0031 125.446 34.1896 125.572 34.3026C125.692 34.4212 125.854 34.5963 125.932 34.6924C126.004 34.7884 126.184 34.9805 126.328 35.1217C126.466 35.2686 126.58 35.4042 126.58 35.4324C126.58 35.455 126.61 35.4776 126.646 35.4776C126.724 35.4776 127 35.7601 127 35.8335C127 35.8561 127.06 35.9352 127.138 36.0087C127.21 36.0764 127.324 36.2007 127.39 36.2855C127.456 36.3702 127.534 36.438 127.558 36.438C127.63 36.438 127.78 36.5905 127.78 36.6583C127.78 36.6922 127.81 36.7205 127.84 36.7205C127.876 36.7205 127.9 36.7487 127.9 36.777C127.9 36.8109 128.026 36.9634 128.188 37.1103C128.344 37.2628 128.578 37.5057 128.71 37.6526C129.166 38.1554 129.31 38.3136 129.58 38.5847C129.73 38.7316 129.904 38.9237 129.97 39.0141C130.036 39.0988 130.21 39.2909 130.36 39.4378C130.51 39.5847 130.69 39.7711 130.762 39.8502L130.888 39.9971H136.431C139.905 39.9971 142.005 39.9745 142.059 39.9406C142.119 39.9067 142.125 39.8841 142.077 39.8841C142.035 39.8841 141.999 39.8558 141.999 39.8276C141.999 39.7937 141.909 39.6807 141.807 39.579C141.507 39.2909 141.219 38.9802 141.219 38.9463C141.219 38.935 141.129 38.8333 141.027 38.7316C140.721 38.4435 140.439 38.1384 140.439 38.1045C140.439 38.082 140.265 37.9068 140.049 37.7091C139.833 37.5057 139.659 37.3193 139.659 37.2854C139.659 37.2515 139.455 37.0368 139.209 36.8052C138.963 36.5736 138.759 36.3589 138.759 36.325C138.759 36.2911 138.585 36.1047 138.369 35.9013C138.153 35.7036 137.979 35.5172 137.979 35.4833C137.979 35.4494 137.955 35.4211 137.919 35.4211C137.889 35.4211 137.859 35.3985 137.859 35.3703C137.859 35.342 137.709 35.1782 137.529 35.0031C137.349 34.8336 137.199 34.6754 137.199 34.6585C137.199 34.6415 137.139 34.5681 137.067 34.4946C136.935 34.3647 136.497 33.9015 136.179 33.5568C135.873 33.2235 135.543 32.8676 135.339 32.653C135.225 32.5343 135.051 32.3422 134.949 32.2293C134.853 32.1106 134.673 31.9242 134.559 31.8112C134.445 31.6926 134.271 31.5005 134.169 31.3819C134.073 31.2632 133.87 31.0485 133.72 30.9017C133.57 30.7604 133.396 30.5684 133.33 30.4836C133.264 30.3932 133.09 30.2012 132.94 30.0543C132.79 29.9074 132.592 29.6927 132.49 29.5741C132.394 29.4611 132.214 29.2747 132.1 29.1504C131.986 29.0317 131.782 28.8171 131.65 28.6702C131.518 28.5177 131.35 28.3425 131.278 28.2691C131.2 28.1956 131.14 28.1222 131.14 28.1053C131.14 28.0883 131.026 27.964 130.888 27.8284C130.582 27.5403 130.36 27.2974 130.36 27.2522C130.36 27.2353 130.186 27.0601 129.97 26.8624C129.754 26.659 129.58 26.4726 129.58 26.4387C129.58 26.4048 129.376 26.1901 129.13 25.9585C128.884 25.7325 128.68 25.5122 128.68 25.4783C128.68 25.4444 128.476 25.2297 128.23 24.9981C127.984 24.7665 127.78 24.5575 127.78 24.5236C127.78 24.4953 127.606 24.3033 127.39 24.0999C127.174 23.8965 127 23.7157 127 23.6988C127 23.6592 126.772 23.4107 126.478 23.1282C126.334 22.9926 126.22 22.8683 126.22 22.8514C126.22 22.8175 126.088 22.6763 125.698 22.2865C125.554 22.1509 125.44 22.0209 125.44 22.004C125.44 21.987 125.35 21.8854 125.248 21.778C124.732 21.2583 124.66 21.1848 124.66 21.1566C124.66 21.1396 124.546 21.0097 124.408 20.8741C123.982 20.4617 123.88 20.3431 123.88 20.2979C123.88 20.2696 123.826 20.2132 123.76 20.168C123.604 20.0606 123.61 19.9646 123.778 19.8064C123.85 19.733 123.994 19.5804 124.09 19.4618C124.192 19.3375 124.36 19.1567 124.468 19.055C124.57 18.9534 124.66 18.8573 124.66 18.8404C124.66 18.8234 124.75 18.7217 124.858 18.6144C125.368 18.0947 125.44 18.0212 125.44 17.993C125.44 17.976 125.554 17.8461 125.698 17.7105C126.088 17.3207 126.22 17.1795 126.22 17.1456C126.22 17.1286 126.334 17.0043 126.478 16.8688C126.766 16.5919 127 16.3377 127 16.2982C127 16.2869 127.174 16.1004 127.39 15.8914C127.606 15.6824 127.78 15.4903 127.78 15.4677C127.78 15.4451 127.954 15.2531 128.17 15.044C128.386 14.835 128.56 14.6429 128.56 14.6147C128.56 14.5921 128.764 14.3774 129.01 14.1458C129.256 13.9142 129.46 13.6995 129.46 13.6656C129.46 13.6373 129.664 13.417 129.91 13.1798C130.156 12.9481 130.36 12.7278 130.36 12.7052C130.36 12.677 130.468 12.547 130.6 12.4171C130.732 12.2815 130.84 12.1572 130.84 12.1346C130.84 12.1064 130.876 12.0894 130.918 12.0894C130.966 12.0894 131.038 12.0273 131.08 11.9482C131.122 11.8691 131.182 11.807 131.212 11.807C131.236 11.807 131.26 11.7674 131.26 11.7222C131.26 11.677 131.29 11.6375 131.32 11.6375C131.356 11.6375 131.38 11.5979 131.38 11.5527C131.38 11.5076 131.416 11.468 131.458 11.468C131.494 11.468 131.614 11.372 131.71 11.2646C131.812 11.1516 131.95 10.9991 132.028 10.9257C132.1 10.8522 132.16 10.7731 132.16 10.7449C132.16 10.7166 132.37 10.4907 132.628 10.2421C132.88 9.98789 133.156 9.70542 133.228 9.60938C133.306 9.51334 133.468 9.33821 133.588 9.21958C133.714 9.10659 133.882 8.92016 133.965 8.80718C134.055 8.69984 134.265 8.47952 134.433 8.31569C134.601 8.15186 134.739 8.01062 134.739 7.99368C134.739 7.95413 134.967 7.70556 135.267 7.4231C135.405 7.28751 135.519 7.16323 135.519 7.14628C135.519 7.10673 135.747 6.85816 136.047 6.5757C136.185 6.44011 136.299 6.31583 136.299 6.29888C136.299 6.26498 136.431 6.12375 136.827 5.73395C136.965 5.59837 137.079 5.46843 137.079 5.45148C137.079 5.43454 137.169 5.33285 137.277 5.22551C137.787 4.70577 137.859 4.63233 137.859 4.60408C137.859 4.58714 137.973 4.4572 138.117 4.32162C138.513 3.92617 138.639 3.79058 138.639 3.75669C138.639 3.73409 138.741 3.62675 138.867 3.51377C138.993 3.40078 139.173 3.20305 139.269 3.07877C139.371 2.96013 139.617 2.69461 139.827 2.49124C140.031 2.28786 140.199 2.10144 140.199 2.07319C140.199 2.05059 140.313 1.92066 140.457 1.79072C140.595 1.65514 140.799 1.44611 140.901 1.32183C141.009 1.20319 141.219 0.971573 141.363 0.819042C141.909 0.242809 141.999 0.141121 141.999 0.0676804C141.999 0.0168381 140.847 -0.000110626 136.425 -0.000110626H130.852L130.606 0.220211C130.468 0.344498 130.36 0.463135 130.36 0.491379C130.36 0.513977 130.186 0.706055 129.97 0.920727C129.754 1.12975 129.58 1.31053 129.58 1.32748C129.58 1.36702 129.346 1.62124 129.058 1.89806C128.914 2.03365 128.8 2.15793 128.8 2.16923C128.8 2.20312 128.512 2.51384 128.218 2.80195C128.11 2.90364 128.02 3.00533 128.02 3.02227C128.02 3.03922 127.93 3.14091 127.828 3.24825C127.312 3.76799 127.24 3.84143 127.24 3.86967C127.24 3.88662 127.126 4.01091 126.988 4.14649C126.844 4.28207 126.676 4.46285 126.61 4.55324C126.544 4.63798 126.382 4.81311 126.25 4.93739C126.118 5.06733 125.926 5.2707 125.83 5.39499C125.728 5.51928 125.554 5.71135 125.44 5.81869C125.326 5.92603 125.158 6.1068 125.074 6.21414C124.984 6.32148 124.798 6.5305 124.654 6.67173C124.51 6.81862 124.312 7.03329 124.21 7.14628C124.114 7.26492 123.934 7.45699 123.82 7.57563C123.706 7.68861 123.532 7.87504 123.43 7.99368C123.334 8.10666 123.178 8.27614 123.082 8.37218L122.92 8.54166L122.752 8.36653C122.662 8.26484 122.5 8.10101 122.398 7.99368C122.29 7.88634 122.2 7.78465 122.2 7.77335C122.2 7.7564 121.996 7.54738 121.75 7.30446C121.504 7.06719 121.3 6.84686 121.3 6.82427C121.3 6.79602 121.078 6.5644 120.809 6.31018C120.533 6.05596 120.203 5.717 120.071 5.56447C119.939 5.41194 119.651 5.10687 119.429 4.88655C119.201 4.67188 119.021 4.47415 119.021 4.45155C119.021 4.42331 118.781 4.17474 118.481 3.89227C118.187 3.61545 117.941 3.37253 117.941 3.36123C117.941 3.32734 117.623 2.98838 117.299 2.67767C117.155 2.54208 117.041 2.4178 117.041 2.40085C117.041 2.3839 116.927 2.25397 116.789 2.11839C116.273 1.60994 116.141 1.46871 116.141 1.44046C116.141 1.38397 115.847 1.12975 115.781 1.12975C115.751 1.12975 115.721 1.1128 115.721 1.08456C115.721 1.03936 115.319 0.598717 114.953 0.248459L114.695 -0.000110626L110.513 0.00553894C108.215 0.00553894 106.296 0.0224876 106.26 0.0394325ZM114.941 10.6884C115.025 10.7844 115.127 10.8974 115.169 10.937C115.205 10.9765 115.241 11.0217 115.241 11.0443C115.241 11.0613 115.355 11.1855 115.499 11.3211C115.841 11.6488 116.141 11.9651 116.141 12.0047C116.141 12.0216 116.345 12.2307 116.591 12.4679C116.837 12.7052 117.041 12.9199 117.041 12.9481C117.041 12.9764 117.215 13.1628 117.431 13.3605C117.707 13.6204 117.821 13.7673 117.821 13.869C117.821 13.9481 117.797 14.0102 117.761 14.0102C117.731 14.0102 117.701 14.0384 117.701 14.0667C117.701 14.1288 117.623 14.2136 117.239 14.6034C117.131 14.7107 117.041 14.8124 117.041 14.8294C117.041 14.8463 116.951 14.948 116.849 15.0553C116.333 15.5751 116.261 15.6485 116.261 15.6768C116.261 15.6937 116.171 15.7954 116.069 15.8971C115.769 16.1852 115.481 16.4959 115.481 16.5298C115.481 16.5411 115.367 16.6654 115.229 16.801C115.085 16.9365 114.929 17.1004 114.881 17.1682C114.833 17.2303 114.773 17.2868 114.749 17.2868C114.725 17.2868 114.701 15.7615 114.701 13.8972C114.701 12.0329 114.719 10.5076 114.749 10.5076C114.773 10.5076 114.857 10.5867 114.941 10.6884Z" fill="black"/>
<path d="M142.24 0.0563812C142.24 0.0902786 142.276 0.169369 142.318 0.23716C142.39 0.361446 142.432 0.417938 142.588 0.587418C142.624 0.632614 142.66 0.700405 142.66 0.734299C142.66 0.762547 142.69 0.790794 142.72 0.790794C142.756 0.790794 142.78 0.830338 142.78 0.875534C142.78 0.920727 142.81 0.960274 142.84 0.960274C142.876 0.960274 142.9 0.999817 142.9 1.04501C142.9 1.09021 142.93 1.12975 142.96 1.12975C142.996 1.12975 143.02 1.158 143.02 1.19189C143.02 1.25969 143.44 1.82462 143.512 1.85287C143.542 1.86417 143.56 1.91501 143.56 1.9602C143.56 2.01105 143.608 2.09014 143.668 2.14098C143.722 2.19183 143.812 2.30481 143.86 2.40085C143.956 2.58163 143.968 2.59858 144.19 2.85279C144.274 2.94318 144.34 3.05617 144.34 3.09007C144.34 3.12961 144.37 3.16351 144.4 3.16351C144.436 3.16351 144.46 3.20305 144.46 3.24825C144.46 3.29344 144.49 3.33299 144.52 3.33299C144.556 3.33299 144.58 3.37253 144.58 3.42338C144.58 3.47422 144.628 3.55896 144.688 3.60981C144.808 3.71149 145.12 4.15779 145.12 4.22558C145.12 4.24818 145.174 4.30467 145.24 4.34986C145.306 4.39506 145.36 4.47415 145.36 4.53064C145.36 4.58714 145.39 4.63233 145.42 4.63233C145.456 4.63233 145.48 4.67188 145.48 4.71707C145.48 4.76226 145.504 4.80181 145.534 4.80181C145.564 4.80181 145.606 4.847 145.63 4.90915C145.66 4.99954 145.726 5.08428 145.96 5.3498C145.99 5.38934 146.02 5.44583 146.02 5.47973C146.02 5.50798 146.05 5.53622 146.08 5.53622C146.116 5.53622 146.14 5.57577 146.14 5.62096C146.14 5.66616 146.17 5.7057 146.2 5.7057C146.236 5.7057 146.26 5.74525 146.26 5.79044C146.26 5.83564 146.29 5.87518 146.32 5.87518C146.356 5.87518 146.38 5.90343 146.38 5.93732C146.38 6.00512 146.8 6.57005 146.872 6.59829C146.902 6.60959 146.92 6.66043 146.92 6.70563C146.92 6.75647 146.968 6.83556 147.028 6.88641C147.082 6.93725 147.172 7.05024 147.22 7.14628C147.316 7.32706 147.328 7.34401 147.55 7.59822C147.634 7.68861 147.7 7.8016 147.7 7.83549C147.7 7.87504 147.73 7.90894 147.76 7.90894C147.796 7.90894 147.82 7.94848 147.82 7.99368C147.82 8.03887 147.85 8.07841 147.88 8.07841C147.916 8.07841 147.94 8.12361 147.94 8.1801C147.94 8.2366 147.994 8.31569 148.06 8.36088C148.126 8.40608 148.18 8.46257 148.18 8.49082C148.18 8.51906 148.246 8.62075 148.33 8.72244C148.414 8.82413 148.48 8.93146 148.48 8.95971C148.48 8.98796 148.534 9.0501 148.6 9.09529C148.666 9.14049 148.72 9.21958 148.72 9.27607C148.72 9.33257 148.75 9.37776 148.78 9.37776C148.816 9.37776 148.84 9.40601 148.84 9.43425C148.84 9.46815 148.87 9.52464 148.9 9.56419C149.134 9.8297 149.2 9.91444 149.23 10.0048C149.254 10.067 149.296 10.1122 149.326 10.1122C149.356 10.1122 149.38 10.1517 149.38 10.1969C149.38 10.2421 149.41 10.2817 149.44 10.2817C149.476 10.2817 149.5 10.3212 149.5 10.3664C149.5 10.4116 149.53 10.4511 149.56 10.4511C149.596 10.4511 149.62 10.485 149.62 10.5302C149.62 10.5754 149.644 10.6206 149.668 10.6319C149.692 10.6376 149.788 10.7618 149.872 10.9031C149.956 11.0443 150.088 11.2138 150.154 11.2816C150.226 11.3494 150.28 11.4454 150.28 11.4963C150.28 11.5414 150.31 11.581 150.34 11.581C150.376 11.581 150.4 11.6205 150.4 11.6657C150.4 11.7109 150.424 11.7505 150.448 11.7505C150.478 11.7505 150.538 11.8183 150.586 11.903C150.676 12.0725 150.688 12.0951 150.91 12.3437C150.994 12.434 151.06 12.547 151.06 12.5809C151.06 12.6205 151.09 12.6544 151.12 12.6544C151.156 12.6544 151.18 12.6939 151.18 12.7391C151.18 12.7843 151.204 12.8238 151.234 12.8238C151.264 12.8238 151.318 12.8973 151.36 12.9933C151.402 13.0837 151.456 13.1628 151.486 13.1628C151.516 13.1628 151.54 13.1967 151.54 13.2362C151.54 13.2758 151.606 13.3718 151.69 13.4566C151.773 13.5413 151.839 13.643 151.839 13.6825C151.839 13.7277 151.893 13.7955 151.959 13.8407C152.025 13.8859 152.079 13.965 152.079 14.0215C152.079 14.078 152.109 14.1232 152.139 14.1232C152.175 14.1232 152.199 14.1514 152.199 14.1797C152.199 14.2136 152.229 14.2701 152.259 14.3096C152.493 14.5751 152.559 14.6599 152.589 14.7503C152.613 14.8124 152.655 14.8576 152.685 14.8576C152.715 14.8576 152.739 14.8971 152.739 14.9423C152.739 14.9875 152.769 15.0271 152.799 15.0271C152.835 15.0271 152.859 15.0666 152.859 15.1118C152.859 15.1627 152.919 15.2644 152.997 15.3378C153.069 15.4112 153.225 15.6146 153.339 15.7841C153.453 15.9592 153.567 16.1004 153.597 16.1004C153.621 16.1004 153.639 16.1513 153.639 16.2134C153.639 16.2756 153.669 16.3264 153.699 16.3264C153.735 16.3264 153.759 16.366 153.759 16.4112C153.759 16.4564 153.783 16.4959 153.807 16.4959C153.837 16.4959 153.897 16.5637 153.945 16.6484C153.993 16.7388 154.059 16.8349 154.089 16.8744C154.125 16.914 154.185 16.9817 154.227 17.0269C154.263 17.0721 154.299 17.1399 154.299 17.1738C154.299 17.2021 154.329 17.2303 154.359 17.2303C154.395 17.2303 154.419 17.2699 154.419 17.3151C154.419 17.3602 154.449 17.3998 154.479 17.3998C154.515 17.3998 154.539 17.4393 154.539 17.4845C154.539 17.5297 154.569 17.5693 154.599 17.5693C154.635 17.5693 154.659 17.6032 154.659 17.6427C154.659 17.6823 154.713 17.7726 154.779 17.8404C154.845 17.9082 154.899 17.9817 154.899 18.0043C154.899 18.0325 154.965 18.1173 155.049 18.202C155.133 18.2867 155.199 18.3884 155.199 18.428C155.199 18.4732 155.253 18.541 155.319 18.5861C155.385 18.6313 155.439 18.7104 155.439 18.7669C155.439 18.8234 155.469 18.8686 155.499 18.8686C155.535 18.8686 155.559 18.8969 155.559 18.9251C155.559 18.959 155.589 19.0155 155.619 19.055C155.853 19.3206 155.919 19.4053 155.949 19.4957C155.973 19.5578 156.015 19.603 156.045 19.603C156.075 19.603 156.099 19.6426 156.099 19.6878C156.099 19.733 156.129 19.7725 156.159 19.7725C156.195 19.7725 156.219 19.8177 156.219 19.8742C156.219 19.9307 156.273 20.0098 156.339 20.055C156.405 20.1002 156.459 20.1567 156.459 20.1849C156.459 20.2132 156.525 20.3148 156.609 20.4165C156.693 20.5182 156.759 20.6256 156.759 20.6538C156.759 20.682 156.813 20.7442 156.879 20.7894C156.945 20.8346 156.999 20.9137 156.999 20.9702C156.999 21.0267 157.029 21.0718 157.059 21.0718C157.095 21.0718 157.119 21.1114 157.119 21.1566C157.119 21.2018 157.143 21.2413 157.167 21.2413C157.197 21.2413 157.257 21.3091 157.305 21.3939C157.353 21.4843 157.419 21.5803 157.449 21.6198C157.485 21.6594 157.545 21.7272 157.587 21.7724C157.623 21.8176 157.659 21.8854 157.659 21.9192C157.659 21.9475 157.689 21.9757 157.719 21.9757C157.755 21.9757 157.779 22.0153 157.779 22.0605C157.779 22.1057 157.809 22.1452 157.839 22.1452C157.875 22.1452 157.899 22.1791 157.899 22.2243C157.899 22.2695 157.935 22.3204 157.977 22.3373C158.037 22.3655 158.037 22.3768 157.977 22.4051C157.935 22.422 157.899 22.4842 157.899 22.5463C157.899 22.6028 157.875 22.6537 157.839 22.6537C157.809 22.6537 157.779 22.6819 157.779 22.7102C157.779 22.744 157.749 22.8005 157.719 22.8401C157.485 23.1056 157.419 23.1903 157.389 23.2807C157.365 23.3429 157.323 23.3881 157.293 23.3881C157.263 23.3881 157.239 23.4276 157.239 23.4728C157.239 23.518 157.215 23.5576 157.179 23.5576C157.149 23.5576 157.119 23.5971 157.119 23.6423C157.119 23.6931 157.059 23.7948 156.987 23.8683C156.909 23.9417 156.753 24.1451 156.639 24.3146C156.525 24.4897 156.411 24.6309 156.387 24.6309C156.357 24.6309 156.339 24.6761 156.339 24.7326C156.339 24.7891 156.285 24.8682 156.219 24.9134C156.153 24.9586 156.099 25.0377 156.099 25.0942C156.099 25.1507 156.075 25.1959 156.039 25.1959C156.009 25.1959 155.979 25.2241 155.979 25.2523C155.979 25.2862 155.949 25.3427 155.919 25.3823C155.637 25.6986 155.559 25.8003 155.559 25.8568C155.559 25.8964 155.535 25.9303 155.499 25.9303C155.469 25.9303 155.439 25.9698 155.439 26.015C155.439 26.0602 155.415 26.0997 155.379 26.0997C155.349 26.0997 155.319 26.1393 155.319 26.1901C155.319 26.241 155.271 26.3257 155.211 26.3766C155.151 26.4274 155.049 26.5517 154.989 26.6477C154.923 26.7494 154.851 26.8342 154.827 26.8342C154.803 26.8342 154.779 26.8794 154.779 26.9358C154.779 26.9923 154.725 27.0714 154.659 27.1166C154.593 27.1618 154.539 27.2409 154.539 27.2974C154.539 27.3539 154.515 27.3991 154.479 27.3991C154.449 27.3991 154.419 27.4273 154.419 27.4556C154.419 27.4895 154.389 27.546 154.359 27.5855C154.125 27.851 154.059 27.9358 154.029 28.0262C154.005 28.0883 153.963 28.1335 153.933 28.1335C153.903 28.1335 153.879 28.173 153.879 28.2182C153.879 28.2634 153.855 28.303 153.819 28.303C153.789 28.303 153.759 28.3482 153.759 28.4047C153.759 28.4612 153.705 28.5403 153.639 28.5854C153.573 28.6306 153.519 28.6928 153.519 28.721C153.519 28.7493 153.453 28.8566 153.369 28.9583C153.285 29.06 153.219 29.1617 153.219 29.1899C153.219 29.2182 153.165 29.2747 153.099 29.3199C153.033 29.3651 152.979 29.4441 152.979 29.5006C152.979 29.5571 152.955 29.6023 152.919 29.6023C152.889 29.6023 152.859 29.6419 152.859 29.6871C152.859 29.7323 152.835 29.7718 152.811 29.7718C152.781 29.7718 152.721 29.8396 152.673 29.9243C152.583 30.0938 152.571 30.1164 152.349 30.365C152.265 30.4554 152.199 30.5684 152.199 30.6023C152.199 30.6418 152.175 30.6757 152.139 30.6757C152.109 30.6757 152.079 30.7152 152.079 30.7604C152.079 30.8056 152.055 30.8452 152.019 30.8452C151.989 30.8452 151.959 30.8847 151.959 30.9356C151.959 30.9864 151.911 31.0711 151.851 31.122C151.791 31.1728 151.69 31.2971 151.63 31.3932C151.564 31.4948 151.492 31.5796 151.468 31.5796C151.444 31.5796 151.42 31.6248 151.42 31.6813C151.42 31.7378 151.366 31.8169 151.3 31.8621C151.234 31.9072 151.18 31.9863 151.18 32.0428C151.18 32.0993 151.156 32.1445 151.12 32.1445C151.09 32.1445 151.06 32.1728 151.06 32.201C151.06 32.2349 151.03 32.2914 151 32.3309C150.718 32.6473 150.64 32.749 150.64 32.8055C150.64 32.845 150.616 32.8789 150.58 32.8789C150.55 32.8789 150.52 32.9185 150.52 32.9637C150.52 33.0089 150.496 33.0484 150.46 33.0484C150.43 33.0484 150.4 33.0936 150.4 33.1501C150.4 33.2066 150.346 33.2857 150.28 33.3309C150.214 33.3761 150.16 33.4326 150.16 33.4608C150.16 33.4891 150.094 33.5907 150.01 33.6924C149.926 33.7941 149.86 33.9015 149.86 33.9297C149.86 33.9579 149.806 34.0201 149.74 34.0653C149.674 34.1105 149.62 34.1896 149.62 34.2461C149.62 34.3026 149.596 34.3478 149.572 34.3478C149.542 34.3478 149.458 34.4551 149.38 34.5907C149.302 34.7206 149.206 34.8562 149.176 34.8957C148.996 35.0878 148.96 35.1387 148.96 35.1951C148.96 35.2234 148.936 35.2516 148.9 35.2516C148.87 35.2516 148.84 35.2912 148.84 35.3364C148.84 35.3816 148.816 35.4211 148.78 35.4211C148.75 35.4211 148.72 35.4607 148.72 35.5059C148.72 35.5511 148.696 35.5906 148.66 35.5906C148.63 35.5906 148.6 35.6301 148.6 35.681C148.6 35.7318 148.552 35.8166 148.492 35.8674C148.432 35.9183 148.33 36.0425 148.27 36.1386C148.204 36.2403 148.132 36.325 148.108 36.325C148.084 36.325 148.06 36.3702 148.06 36.4267C148.06 36.4832 148.006 36.5623 147.94 36.6075C147.874 36.6527 147.82 36.7318 147.82 36.7883C147.82 36.8448 147.796 36.8899 147.76 36.8899C147.73 36.8899 147.7 36.9182 147.7 36.9464C147.7 36.9803 147.67 37.0368 147.64 37.0764C147.358 37.3927 147.28 37.4944 147.28 37.5509C147.28 37.5905 147.256 37.6244 147.22 37.6244C147.19 37.6244 147.16 37.6639 147.16 37.7091C147.16 37.7543 147.136 37.7938 147.1 37.7938C147.07 37.7938 147.04 37.8334 147.04 37.8842C147.04 37.9351 146.992 38.0198 146.932 38.0707C146.812 38.1723 146.5 38.6186 146.5 38.6864C146.5 38.709 146.446 38.7655 146.38 38.8107C146.314 38.8559 146.26 38.935 146.26 38.9915C146.26 39.048 146.236 39.0932 146.2 39.0932C146.17 39.0932 146.14 39.1327 146.14 39.1779C146.14 39.2231 146.116 39.2627 146.086 39.2627C146.056 39.2627 146.014 39.3079 145.99 39.37C145.96 39.466 145.888 39.5621 145.654 39.8219C145.6 39.8784 145.6 39.9067 145.666 39.9462C145.714 39.9745 147.964 39.9971 150.718 39.9971C155.469 39.9971 155.685 39.9914 155.787 39.8954C155.985 39.692 156.099 39.5451 156.099 39.483C156.099 39.4434 156.147 39.3756 156.207 39.3248C156.261 39.274 156.351 39.1553 156.399 39.0649C156.495 38.8842 156.507 38.8672 156.729 38.613C156.813 38.5169 156.879 38.4096 156.879 38.3701C156.879 38.3362 156.909 38.3023 156.939 38.3023C156.975 38.3023 156.999 38.2627 156.999 38.2175C156.999 38.1723 157.023 38.1328 157.053 38.1328C157.083 38.1328 157.137 38.0594 157.179 37.9633C157.221 37.8729 157.275 37.7938 157.305 37.7938C157.335 37.7938 157.359 37.7599 157.359 37.7204C157.359 37.6808 157.425 37.5848 157.509 37.5001C157.593 37.4153 157.659 37.3136 157.659 37.2741C157.659 37.2289 157.713 37.1611 157.779 37.1159C157.845 37.0707 157.899 36.9916 157.899 36.9351C157.899 36.8786 157.929 36.8335 157.959 36.8335C157.995 36.8335 158.019 36.8052 158.019 36.777C158.019 36.7431 158.049 36.6866 158.079 36.647C158.313 36.3815 158.379 36.2968 158.409 36.2064C158.433 36.1442 158.475 36.099 158.505 36.099C158.535 36.099 158.559 36.0595 158.559 36.0143C158.559 35.9691 158.589 35.9296 158.619 35.9296C158.655 35.9296 158.679 35.8844 158.679 35.8279C158.679 35.7714 158.733 35.6923 158.799 35.6471C158.865 35.6019 158.919 35.5454 158.919 35.5228C158.919 35.455 159.231 35.0087 159.351 34.907C159.411 34.8562 159.459 34.7715 159.459 34.7206C159.459 34.6698 159.489 34.6302 159.519 34.6302C159.555 34.6302 159.579 34.5907 159.579 34.5455C159.579 34.5003 159.603 34.4607 159.627 34.4607C159.657 34.4607 159.717 34.3929 159.765 34.3082C159.855 34.1387 159.867 34.1161 160.089 33.8676C160.173 33.7715 160.239 33.6642 160.239 33.6246C160.239 33.5907 160.269 33.5568 160.299 33.5568C160.335 33.5568 160.359 33.5173 160.359 33.4721C160.359 33.4269 160.383 33.3874 160.413 33.3874C160.443 33.3874 160.497 33.3083 160.539 33.2179C160.581 33.1218 160.635 33.0484 160.665 33.0484C160.695 33.0484 160.719 33.0145 160.719 32.975C160.719 32.9354 160.785 32.8394 160.869 32.7546C160.953 32.6699 161.019 32.5682 161.019 32.5287C161.019 32.4835 161.073 32.4157 161.139 32.3705C161.205 32.3253 161.259 32.2462 161.259 32.1897C161.259 32.1332 161.289 32.088 161.319 32.088C161.355 32.088 161.379 32.0598 161.379 32.0315C161.379 31.9976 161.409 31.9411 161.439 31.9016C161.673 31.6361 161.739 31.5513 161.769 31.4609C161.793 31.3988 161.835 31.3536 161.865 31.3536C161.895 31.3536 161.919 31.3141 161.919 31.2689C161.919 31.2237 161.949 31.1841 161.979 31.1841C162.015 31.1841 162.039 31.1389 162.039 31.0824C162.039 31.026 162.093 30.9469 162.159 30.9017C162.225 30.8565 162.279 30.7943 162.279 30.7661C162.279 30.7378 162.345 30.6305 162.429 30.5288C162.513 30.4271 162.579 30.3254 162.579 30.2972C162.579 30.2689 162.633 30.2124 162.699 30.1673C162.765 30.1221 162.819 30.043 162.819 29.9865C162.819 29.93 162.849 29.8848 162.879 29.8848C162.915 29.8848 162.939 29.8452 162.939 29.8C162.939 29.7549 162.963 29.7153 162.993 29.7153C163.023 29.7153 163.065 29.6701 163.089 29.608C163.119 29.5176 163.185 29.4328 163.419 29.1673C163.449 29.1278 163.479 29.0713 163.479 29.0374C163.479 29.0091 163.509 28.9809 163.539 28.9809C163.575 28.9809 163.599 28.9414 163.599 28.8962C163.599 28.851 163.629 28.8114 163.659 28.8114C163.695 28.8114 163.719 28.7719 163.719 28.7267C163.719 28.6815 163.749 28.6419 163.779 28.6419C163.815 28.6419 163.839 28.608 163.839 28.5685C163.839 28.529 163.887 28.4442 163.947 28.3821C164.007 28.3256 164.109 28.19 164.169 28.0883C164.235 27.9923 164.307 27.9075 164.331 27.9075C164.355 27.9075 164.379 27.868 164.379 27.8171C164.379 27.7663 164.427 27.6816 164.487 27.6307C164.541 27.5799 164.631 27.4612 164.678 27.3708C164.774 27.1901 164.786 27.1731 165.008 26.9189C165.092 26.8229 165.158 26.7155 165.158 26.676C165.158 26.6421 165.188 26.6082 165.218 26.6082C165.254 26.6082 165.278 26.5686 165.278 26.5234C165.278 26.4782 165.308 26.4387 165.338 26.4387C165.374 26.4387 165.398 26.3992 165.398 26.3483C165.398 26.2975 165.446 26.2127 165.506 26.1619C165.626 26.0602 165.938 25.6139 165.938 25.5461C165.938 25.5235 165.992 25.467 166.058 25.4218C166.124 25.3766 166.178 25.2975 166.178 25.241C166.178 25.1846 166.208 25.1394 166.238 25.1394C166.274 25.1394 166.298 25.0998 166.298 25.0546C166.298 25.0094 166.322 24.9699 166.352 24.9699C166.382 24.9699 166.424 24.9247 166.448 24.8625C166.478 24.7722 166.544 24.6874 166.778 24.4219C166.808 24.3824 166.838 24.3259 166.838 24.292C166.838 24.2637 166.868 24.2355 166.898 24.2355C166.934 24.2355 166.958 24.1903 166.958 24.1338C166.958 24.0773 167.012 23.9982 167.078 23.953C167.144 23.9078 167.198 23.8513 167.198 23.8231C167.198 23.7609 167.624 23.196 167.69 23.1734C167.72 23.1621 167.738 23.1113 167.738 23.0661C167.738 23.0152 167.786 22.9361 167.846 22.8853C167.9 22.8344 167.99 22.7158 168.038 22.6254C168.134 22.4446 168.146 22.4277 168.368 22.1735C168.452 22.0774 168.518 21.9701 168.518 21.9305C168.518 21.8967 168.548 21.8628 168.578 21.8628C168.614 21.8628 168.638 21.8232 168.638 21.778C168.638 21.7328 168.668 21.6933 168.698 21.6933C168.734 21.6933 168.758 21.6537 168.758 21.6029C168.758 21.552 168.806 21.4673 168.866 21.4165C168.986 21.3148 169.298 20.8685 169.298 20.8007C169.298 20.7781 169.352 20.7216 169.418 20.6764C169.484 20.6312 169.538 20.5521 169.538 20.4956C169.538 20.4391 169.568 20.3939 169.598 20.3939C169.634 20.3939 169.658 20.3657 169.658 20.3374C169.658 20.3035 169.688 20.247 169.718 20.2075C169.952 19.942 170.018 19.8572 170.048 19.7669C170.072 19.7047 170.114 19.6595 170.144 19.6595C170.174 19.6595 170.198 19.62 170.198 19.5748C170.198 19.5296 170.228 19.49 170.258 19.49C170.294 19.49 170.318 19.4448 170.318 19.3884C170.318 19.3319 170.372 19.2528 170.438 19.2076C170.504 19.1624 170.558 19.1002 170.558 19.072C170.558 19.0437 170.624 18.9364 170.708 18.8347C170.792 18.733 170.858 18.6313 170.858 18.6031C170.858 18.5749 170.912 18.5184 170.978 18.4732C171.044 18.428 171.098 18.3489 171.098 18.2924C171.098 18.2359 171.128 18.1907 171.158 18.1907C171.194 18.1907 171.218 18.1512 171.218 18.106C171.218 18.0608 171.242 18.0212 171.266 18.0212C171.296 18.0212 171.356 17.9534 171.404 17.863C171.494 17.6992 171.506 17.6766 171.728 17.428C171.812 17.332 171.878 17.2247 171.878 17.1851C171.878 17.1512 171.908 17.1173 171.938 17.1173C171.974 17.1173 171.998 17.0778 171.998 17.0326C171.998 16.9874 172.022 16.9478 172.052 16.9478C172.082 16.9478 172.136 16.8688 172.178 16.7784C172.22 16.6823 172.274 16.6089 172.304 16.6089C172.334 16.6089 172.358 16.575 172.358 16.5354C172.358 16.4959 172.424 16.3999 172.508 16.3151C172.592 16.2304 172.658 16.1287 172.658 16.0892C172.658 16.044 172.712 15.9762 172.778 15.931C172.844 15.8858 172.898 15.8067 172.898 15.7502C172.898 15.6937 172.928 15.6485 172.958 15.6485C172.994 15.6485 173.018 15.6203 173.018 15.592C173.018 15.5581 173.048 15.5016 173.078 15.4621C173.312 15.1966 173.378 15.1118 173.408 15.0214C173.432 14.9593 173.474 14.9141 173.504 14.9141C173.534 14.9141 173.558 14.8745 173.558 14.8294C173.558 14.7842 173.588 14.7446 173.618 14.7446C173.654 14.7446 173.678 14.6994 173.678 14.6429C173.678 14.5864 173.732 14.5073 173.798 14.4621C173.864 14.417 173.918 14.3548 173.918 14.3266C173.918 14.2983 173.984 14.191 174.068 14.0893C174.152 13.9876 174.218 13.8859 174.218 13.8577C174.218 13.8294 174.272 13.7729 174.338 13.7277C174.404 13.6825 174.458 13.6035 174.458 13.547C174.458 13.4905 174.488 13.4453 174.518 13.4453C174.554 13.4453 174.578 13.4057 174.578 13.3605C174.578 13.3153 174.602 13.2758 174.626 13.2758C174.656 13.2758 174.716 13.208 174.764 13.1176C174.854 12.9538 174.866 12.9312 175.088 12.6826C175.172 12.5866 175.238 12.4792 175.238 12.4397C175.238 12.4058 175.268 12.3719 175.298 12.3719C175.334 12.3719 175.358 12.3324 175.358 12.2872C175.358 12.242 175.382 12.2024 175.412 12.2024C175.442 12.2024 175.496 12.1233 175.538 12.0329C175.58 11.9369 175.634 11.8635 175.664 11.8635C175.694 11.8635 175.718 11.8296 175.718 11.79C175.718 11.7505 175.784 11.6544 175.868 11.5697C175.952 11.485 176.018 11.3833 176.018 11.3437C176.018 11.2985 176.072 11.2307 176.138 11.1855C176.204 11.1403 176.258 11.0613 176.258 11.0048C176.258 10.9483 176.288 10.9031 176.318 10.9031C176.354 10.9031 176.378 10.8748 176.378 10.8466C176.378 10.8127 176.408 10.7562 176.438 10.7166C176.672 10.4511 176.738 10.3664 176.768 10.276C176.792 10.2139 176.834 10.1687 176.864 10.1687C176.894 10.1687 176.918 10.1291 176.918 10.0839C176.918 10.0387 176.948 9.99918 176.978 9.99918C177.014 9.99918 177.038 9.95399 177.038 9.8975C177.038 9.841 177.092 9.76191 177.158 9.71672C177.224 9.67152 177.278 9.61503 177.278 9.58678C177.278 9.55854 177.344 9.45685 177.428 9.35516C177.512 9.25347 177.577 9.14614 177.577 9.11789C177.577 9.08964 177.631 9.0275 177.697 8.98231C177.763 8.93711 177.817 8.85802 177.817 8.80153C177.817 8.74504 177.841 8.69984 177.865 8.69984C177.895 8.69984 177.979 8.5925 178.057 8.45692C178.135 8.32699 178.231 8.1914 178.261 8.15186C178.441 7.95978 178.477 7.90894 178.477 7.85244C178.477 7.8242 178.507 7.79595 178.537 7.79595C178.573 7.79595 178.597 7.7564 178.597 7.71121C178.597 7.66602 178.627 7.62647 178.657 7.62647C178.693 7.62647 178.717 7.58693 178.717 7.54173C178.717 7.49654 178.747 7.45699 178.777 7.45699C178.813 7.45699 178.837 7.4231 178.837 7.38355C178.837 7.34401 178.885 7.25927 178.945 7.19712C179.005 7.14063 179.107 7.00505 179.167 6.90336C179.233 6.80732 179.305 6.72258 179.329 6.72258C179.353 6.72258 179.377 6.68303 179.377 6.63219C179.377 6.58134 179.425 6.4966 179.485 6.44576C179.539 6.39492 179.629 6.27628 179.677 6.18589C179.773 6.00512 179.785 5.98817 180.007 5.73395C180.091 5.63791 180.157 5.53057 180.157 5.49103C180.157 5.45713 180.187 5.42324 180.217 5.42324C180.253 5.42324 180.277 5.38369 180.277 5.3385C180.277 5.2933 180.307 5.25376 180.337 5.25376C180.373 5.25376 180.397 5.21421 180.397 5.16337C180.397 5.11252 180.445 5.02778 180.505 4.97694C180.625 4.87525 180.937 4.42896 180.937 4.36116C180.937 4.33857 180.991 4.28207 181.057 4.23688C181.123 4.19168 181.177 4.11259 181.177 4.0561C181.177 3.99961 181.207 3.95441 181.237 3.95441C181.273 3.95441 181.297 3.91487 181.297 3.86967C181.297 3.82448 181.321 3.78493 181.351 3.78493C181.381 3.78493 181.423 3.73974 181.447 3.6776C181.477 3.58721 181.543 3.50247 181.777 3.23695C181.807 3.1974 181.837 3.14091 181.837 3.10701C181.837 3.07877 181.867 3.05052 181.897 3.05052C181.933 3.05052 181.957 3.01097 181.957 2.96578C181.957 2.91494 182.017 2.81325 182.095 2.73981C182.167 2.66637 182.323 2.46299 182.437 2.29351C182.551 2.11839 182.665 1.97715 182.695 1.97715C182.719 1.97715 182.737 1.93761 182.737 1.88676C182.737 1.83592 182.785 1.75118 182.845 1.70033C182.899 1.64949 182.989 1.53085 183.037 1.44046C183.133 1.25969 183.145 1.24274 183.367 0.988522C183.451 0.892483 183.517 0.785145 183.517 0.745598C183.517 0.711704 183.547 0.677807 183.577 0.677807C183.613 0.677807 183.637 0.638264 183.637 0.593067C183.637 0.547874 183.667 0.508327 183.697 0.508327C183.733 0.508327 183.757 0.463135 183.757 0.406639C183.757 0.350147 183.811 0.271057 183.877 0.225861C184.213 -0.000110626 184.219 -0.000110626 178.939 -0.000110626C173.948 -0.000110626 173.882 -0.000110626 173.78 0.112877C173.726 0.175018 173.678 0.254108 173.678 0.288006C173.678 0.327549 173.63 0.39534 173.57 0.446186C173.45 0.547874 173.138 0.994171 173.138 1.06196C173.138 1.08456 173.084 1.14105 173.018 1.18624C172.952 1.23144 172.898 1.31053 172.898 1.36702C172.898 1.42352 172.874 1.46871 172.838 1.46871C172.808 1.46871 172.778 1.49696 172.778 1.5252C172.778 1.5591 172.748 1.61559 172.718 1.65514C172.484 1.92066 172.418 2.0054 172.388 2.09579C172.364 2.15793 172.322 2.20312 172.292 2.20312C172.262 2.20312 172.238 2.24267 172.238 2.28786C172.238 2.33306 172.214 2.3726 172.178 2.3726C172.148 2.3726 172.118 2.41215 172.118 2.46299C172.118 2.51384 172.07 2.59858 172.01 2.64942C171.95 2.70026 171.83 2.85279 171.746 2.99403C171.656 3.13526 171.53 3.30474 171.464 3.37253C171.392 3.44032 171.338 3.53636 171.338 3.58721C171.338 3.6324 171.314 3.67195 171.278 3.67195C171.248 3.67195 171.218 3.71149 171.218 3.75669C171.218 3.80188 171.194 3.84143 171.158 3.84143C171.128 3.84143 171.098 3.88097 171.098 3.92617C171.098 3.97136 171.074 4.01091 171.038 4.01091C171.008 4.01091 170.978 4.03915 170.978 4.07305C170.978 4.10695 170.942 4.16909 170.906 4.20863C170.726 4.39506 170.678 4.46285 170.678 4.51934C170.678 4.54759 170.654 4.57584 170.618 4.57584C170.588 4.57584 170.558 4.61538 170.558 4.66058C170.558 4.70577 170.534 4.74532 170.498 4.74532C170.468 4.74532 170.438 4.78486 170.438 4.83006C170.438 4.87525 170.414 4.9148 170.378 4.9148C170.348 4.9148 170.318 4.95999 170.318 5.01648C170.318 5.07298 170.264 5.15207 170.198 5.19726C170.132 5.24246 170.078 5.3046 170.078 5.3385C170.078 5.37239 170.012 5.46278 169.928 5.54752C169.844 5.63226 169.778 5.73395 169.778 5.77349C169.778 5.81869 169.724 5.88648 169.658 5.93167C169.592 5.97687 169.538 6.05596 169.538 6.11245C169.538 6.16895 169.514 6.21414 169.478 6.21414C169.448 6.21414 169.418 6.24239 169.418 6.27063C169.418 6.30453 169.388 6.36102 169.358 6.40057C169.124 6.66608 169.058 6.75082 169.028 6.84121C169.004 6.90336 168.962 6.94855 168.932 6.94855C168.902 6.94855 168.878 6.9881 168.878 7.03329C168.878 7.07849 168.854 7.11803 168.818 7.11803C168.788 7.11803 168.758 7.16323 168.758 7.21972C168.758 7.27621 168.704 7.3553 168.638 7.4005C168.572 7.44569 168.518 7.50784 168.518 7.53608C168.518 7.56433 168.452 7.67167 168.368 7.77335C168.284 7.87504 168.218 7.97673 168.218 8.00497C168.218 8.03322 168.164 8.08971 168.098 8.13491C168.032 8.1801 167.978 8.25919 167.978 8.31569C167.978 8.37218 167.954 8.41738 167.918 8.41738C167.888 8.41738 167.858 8.45692 167.858 8.50212C167.858 8.54731 167.834 8.58685 167.804 8.58685C167.774 8.58685 167.72 8.6603 167.678 8.75633C167.636 8.84672 167.588 8.92581 167.564 8.92581C167.54 8.92581 167.474 9.0162 167.414 9.12354C167.348 9.23088 167.276 9.32127 167.246 9.32127C167.222 9.32127 167.198 9.36646 167.198 9.42295C167.198 9.47945 167.144 9.55854 167.078 9.60373C167.012 9.64893 166.958 9.72802 166.958 9.77886C166.958 9.83535 166.934 9.8862 166.91 9.8975C166.838 9.92009 166.418 10.4794 166.418 10.5415C166.418 10.5698 166.364 10.6319 166.298 10.6771C166.232 10.7223 166.178 10.8014 166.178 10.8579C166.178 10.9144 166.154 10.9596 166.118 10.9596C166.088 10.9596 166.058 10.9991 166.058 11.0443C166.058 11.0895 166.034 11.129 166.004 11.129C165.974 11.129 165.932 11.1742 165.908 11.2364C165.878 11.3268 165.812 11.4115 165.578 11.677C165.548 11.7166 165.518 11.7731 165.518 11.807C165.518 11.8352 165.494 11.8635 165.458 11.8635C165.428 11.8635 165.398 11.9087 165.398 11.9651C165.398 12.0216 165.344 12.1007 165.278 12.1459C165.212 12.1911 165.158 12.2702 165.158 12.3267C165.158 12.3832 165.134 12.4284 165.11 12.4284C165.086 12.4284 165.014 12.5131 164.948 12.6092C164.888 12.7109 164.786 12.8351 164.726 12.886C164.667 12.9368 164.619 13.0216 164.619 13.0724C164.619 13.1233 164.595 13.1628 164.559 13.1628C164.529 13.1628 164.499 13.2023 164.499 13.2475C164.499 13.2927 164.475 13.3323 164.439 13.3323C164.409 13.3323 164.379 13.3662 164.379 13.4001C164.379 13.4622 164.301 13.5639 164.019 13.8803C163.989 13.9198 163.959 13.9763 163.959 14.0102C163.959 14.0384 163.935 14.0667 163.899 14.0667C163.869 14.0667 163.839 14.1119 163.839 14.1684C163.839 14.2249 163.785 14.304 163.719 14.3492C163.653 14.3944 163.599 14.4734 163.599 14.5299C163.599 14.5864 163.581 14.6316 163.557 14.6316C163.527 14.6316 163.431 14.7503 163.329 14.8858C163.143 15.1514 163.059 15.2022 163.059 15.0553C163.059 15.0101 163.035 14.9706 162.999 14.9706C162.969 14.9706 162.939 14.931 162.939 14.8858C162.939 14.8407 162.915 14.8011 162.879 14.8011C162.849 14.8011 162.819 14.7616 162.819 14.7164C162.819 14.6712 162.795 14.6316 162.765 14.6316C162.735 14.6316 162.681 14.5525 162.639 14.4621C162.597 14.3661 162.549 14.2927 162.525 14.2927C162.501 14.2927 162.435 14.2023 162.375 14.0949C162.309 13.9876 162.237 13.8972 162.207 13.8972C162.183 13.8972 162.159 13.852 162.159 13.7955C162.159 13.739 162.105 13.6599 162.039 13.6147C161.973 13.5696 161.919 13.4905 161.919 13.434C161.919 13.3775 161.895 13.3323 161.871 13.3323C161.847 13.3323 161.775 13.2475 161.709 13.1459C161.649 13.0498 161.547 12.9142 161.487 12.8577C161.427 12.7956 161.379 12.7109 161.379 12.6713C161.379 12.6318 161.355 12.5979 161.319 12.5979C161.289 12.5979 161.259 12.5583 161.259 12.5131C161.259 12.4679 161.235 12.4284 161.199 12.4284C161.169 12.4284 161.139 12.3945 161.139 12.3549C161.139 12.3154 161.091 12.2307 161.031 12.1685C160.971 12.112 160.869 11.9764 160.809 11.8748C160.743 11.7787 160.671 11.694 160.647 11.694C160.623 11.694 160.599 11.6488 160.599 11.5923C160.599 11.5358 160.545 11.4567 160.479 11.4115C160.413 11.3663 160.359 11.2872 160.359 11.2364C160.359 11.1799 160.335 11.129 160.311 11.1178C160.281 11.1065 160.161 10.9596 160.041 10.7901C159.921 10.6206 159.795 10.4511 159.759 10.4116C159.729 10.372 159.699 10.3155 159.699 10.2817C159.699 10.2534 159.675 10.2252 159.639 10.2252C159.609 10.2252 159.579 10.1856 159.579 10.1404C159.579 10.0952 159.555 10.0557 159.519 10.0557C159.489 10.0557 159.459 10.0218 159.459 9.97659C159.459 9.93139 159.441 9.8862 159.411 9.8749C159.387 9.8636 159.261 9.70542 159.129 9.51899C159.003 9.33257 158.877 9.16873 158.847 9.16309C158.823 9.15179 158.799 9.10094 158.799 9.05575C158.799 9.0049 158.751 8.92581 158.691 8.87497C158.637 8.82413 158.547 8.70549 158.499 8.6151C158.397 8.42303 158.349 8.35523 158.157 8.16316C158.079 8.08971 158.019 7.98803 158.019 7.93718C158.019 7.89199 157.995 7.85244 157.959 7.85244C157.929 7.85244 157.899 7.8129 157.899 7.7677C157.899 7.72251 157.875 7.68296 157.839 7.68296C157.809 7.68296 157.779 7.64342 157.779 7.59258C157.779 7.54173 157.731 7.45699 157.671 7.40615C157.551 7.30446 157.239 6.85816 157.239 6.79037C157.239 6.76777 157.185 6.71128 157.119 6.66608C157.053 6.62089 156.999 6.5418 156.999 6.48531C156.999 6.42881 156.975 6.38362 156.951 6.38362C156.921 6.38362 156.837 6.27628 156.759 6.1407C156.681 6.01077 156.585 5.87518 156.555 5.83564C156.375 5.64356 156.339 5.59272 156.339 5.53622C156.339 5.50798 156.315 5.47973 156.279 5.47973C156.249 5.47973 156.219 5.44018 156.219 5.39499C156.219 5.34415 156.159 5.24246 156.087 5.16902C156.009 5.09557 155.853 4.8922 155.739 4.72272C155.625 4.54759 155.511 4.40636 155.487 4.40636C155.457 4.40636 155.439 4.36681 155.439 4.32162C155.439 4.27077 155.385 4.18039 155.319 4.11259C155.253 4.0448 155.199 3.95441 155.199 3.91487C155.199 3.87532 155.175 3.84143 155.139 3.84143C155.109 3.84143 155.079 3.81318 155.079 3.78493C155.079 3.72844 155.031 3.66065 154.857 3.47422C154.815 3.43468 154.779 3.37253 154.779 3.33864C154.779 3.30474 154.755 3.27649 154.719 3.27649C154.689 3.27649 154.659 3.23695 154.659 3.19175C154.659 3.14656 154.635 3.10701 154.599 3.10701C154.569 3.10701 154.539 3.06747 154.539 3.02227C154.539 2.97708 154.515 2.93753 154.479 2.93753C154.449 2.93753 154.419 2.89799 154.419 2.84715C154.419 2.7963 154.371 2.71156 154.311 2.66072C154.191 2.55903 153.879 2.11274 153.879 2.04494C153.879 2.02235 153.825 1.96585 153.759 1.92066C153.693 1.87546 153.639 1.79637 153.639 1.73988C153.639 1.68339 153.615 1.63819 153.579 1.63819C153.549 1.63819 153.519 1.60994 153.519 1.5817C153.519 1.5478 153.489 1.49131 153.459 1.45176C153.225 1.18624 153.159 1.10151 153.129 1.01112C153.105 0.948975 153.063 0.903782 153.033 0.903782C153.003 0.903782 152.979 0.864235 152.979 0.819042C152.979 0.773846 152.955 0.734299 152.919 0.734299C152.889 0.734299 152.859 0.694756 152.859 0.643913C152.859 0.593067 152.811 0.508327 152.757 0.457485C152.697 0.406639 152.601 0.288006 152.547 0.197617L152.445 0.0281372L147.346 0.0111885C143.908 0.00553894 142.24 0.0168381 142.24 0.0563812Z" fill="black"/>
</mask>
<g mask="url(#mask0_653_1564)">
<rect y="0.0299072" width="184.014" height="39.9718" fill="white"/>
</g>
</svg>
