<svg width="11" height="10" viewBox="0 0 11 10" fill="none" xmlns="http://www.w3.org/2000/svg">
<path fill-rule="evenodd" clip-rule="evenodd" d="M9.97102 6.26326C10.349 6.27693 10.6662 5.99809 10.6795 5.64046L10.8512 1.01974C10.8576 0.845978 10.79 0.676834 10.6635 0.550338C10.537 0.423841 10.3623 0.350607 10.1785 0.347096L5.29277 0.253769C4.91462 0.246547 4.60282 0.530763 4.59634 0.888586C4.58986 1.24641 4.89116 1.54234 5.26931 1.54956L8.48077 1.6109L0.754502 8.52736C0.480173 8.77294 0.46884 9.18307 0.72919 9.44342C0.989539 9.70377 1.42298 9.71575 1.69731 9.47017L9.42358 2.55371L9.31071 5.59096C9.29742 5.94859 9.59305 6.2496 9.97102 6.26326Z" fill="white"/>
</svg>
