<svg width="11" height="10" viewBox="0 0 11 10" fill="none" xmlns="http://www.w3.org/2000/svg">
<path fill-rule="evenodd" clip-rule="evenodd" d="M9.82312 6.14469C10.2013 6.14791 10.5107 5.86042 10.5141 5.50255L10.5581 0.878857C10.5598 0.704981 10.4875 0.53777 10.3576 0.414815C10.2276 0.291861 10.0509 0.223481 9.86714 0.225047L4.98067 0.266703C4.60246 0.269928 4.29863 0.562648 4.30204 0.920513C4.30545 1.27838 4.6148 1.56587 4.99301 1.56265L8.20494 1.53527L0.672654 8.66249C0.405213 8.91555 0.405213 9.32584 0.672654 9.5789C0.940095 9.83196 1.3737 9.83196 1.64114 9.5789L9.17343 2.45167L9.14449 5.49088C9.14108 5.84874 9.44492 6.14147 9.82312 6.14469Z" fill="black"/>
</svg>
