<svg width="20" height="18" viewBox="0 0 20 18" fill="none" xmlns="http://www.w3.org/2000/svg">
<path fill-rule="evenodd" clip-rule="evenodd" d="M10.8034 3.52163C10.2347 4.42386 10.0427 5.48223 10.0427 5.98458C10.0427 6.31555 9.87744 6.62497 9.60153 6.81052C9.32562 6.99607 8.97502 7.03359 8.66565 6.91067C8.46332 6.83028 8.2379 6.74855 7.99416 6.66018C7.3627 6.43123 6.60828 6.1577 5.81393 5.74741C5.00721 5.33071 4.12814 4.76479 3.13243 3.92449C3.14479 4.2996 3.22821 4.64315 3.36838 4.96153C3.69561 5.70479 4.38946 6.43964 5.53843 7.12402C5.85278 7.31126 6.03945 7.65377 6.02543 8.01759C6.01141 8.38141 5.79893 8.70874 5.47109 8.87157L5.46999 8.87211L5.46879 8.8727L5.46611 8.87402L5.45962 8.87719L5.44209 8.88558C5.42841 8.89205 5.41075 8.90024 5.38923 8.9099C5.34619 8.9292 5.28762 8.95441 5.21452 8.98345C5.06847 9.04148 4.86343 9.11522 4.60754 9.18785C4.33843 9.26422 4.01076 9.34001 3.63457 9.39462C3.84923 10.1518 4.32765 10.6244 4.84318 10.9814C5.14633 11.1913 5.43962 11.3458 5.73438 11.5011C5.8077 11.5398 5.88111 11.5784 5.95479 11.618C6.11576 11.7045 6.3274 11.8214 6.50241 11.9605C6.63748 12.0678 7.0303 12.4011 7.0303 12.9666C7.0303 13.3282 6.8652 13.61 6.76069 13.7606C6.63843 13.9368 6.48411 14.0958 6.32254 14.2348C5.99658 14.5153 5.55902 14.7848 5.04024 15.0055C4.4429 15.2597 3.71366 15.4596 2.88005 15.5316C2.94834 15.568 3.02092 15.6028 3.09791 15.6359C3.82879 15.9505 4.89767 16.0792 6.18531 15.963C8.73826 15.7325 11.7669 14.5752 13.8485 12.7611C15.4443 10.9302 16.1202 9.11876 16.4014 7.77621C16.5437 7.09709 16.5852 6.53653 16.592 6.15388C16.5955 5.96274 16.5902 5.81667 16.5847 5.72322C16.582 5.67652 16.5792 5.64305 16.5774 5.62377L16.5756 5.60565C16.546 5.36195 16.6079 5.1154 16.7496 4.91418L16.5759 5.60786L16.5761 5.60958L16.7496 4.91418L18.5967 5.75995C18.5814 5.78314 18.6106 5.73918 18.5967 5.75995C18.5967 5.75995 18.603 6.0231 18.6 6.18931C18.5912 6.67942 18.5388 7.36564 18.3676 8.18266C18.0244 9.82074 17.2047 11.9791 15.3186 14.1218C15.2909 14.1534 15.2611 14.1832 15.2296 14.211C12.7912 16.3627 9.31822 17.6832 6.36711 17.9496C4.89305 18.0827 3.4514 17.9621 2.29944 17.4663C1.1066 16.9529 0.186576 16.0074 0.00776315 14.5864C-0.0315645 14.2739 0.080016 13.9613 0.308744 13.7432C0.537472 13.5251 0.856473 13.4271 1.16923 13.4789C2.47556 13.6951 3.537 13.475 4.24939 13.1719C4.32041 13.1416 4.44996 13.08 4.44996 13.08C4.44996 13.08 3.95348 12.7971 3.69466 12.6178C2.63507 11.8841 1.50753 10.6439 1.50753 8.47815C1.50753 7.92729 1.9571 7.48072 2.51167 7.48072C2.58469 7.48072 2.6563 7.47935 2.72642 7.47675C2.21486 6.96252 1.80639 6.39235 1.52836 5.76083C0.964694 4.48054 0.994153 3.07765 1.57935 1.62442C1.70471 1.31312 1.97913 1.08521 2.30978 1.01779C2.64042 0.95038 2.98304 1.05249 3.22171 1.28956C4.66496 2.72318 5.79678 3.4901 6.74046 3.97753C7.28259 4.25755 7.74749 4.44208 8.21247 4.6134C8.37365 3.93367 8.65532 3.17046 9.10133 2.46294C9.92514 1.15609 11.3466 0 13.5572 0C14.9285 0 15.8108 0.671249 16.3664 1.1313C16.4334 1.18674 16.4915 1.23523 16.5425 1.27783C16.6709 1.3851 16.7547 1.45503 16.8229 1.50449C17.2794 1.28957 17.6916 1.13898 18.0581 1.06961C18.4477 0.995861 19.0091 0.973248 19.4715 1.34092C19.9579 1.72778 20.0142 2.28425 19.9975 2.61384C19.98 2.95877 19.8767 3.30419 19.7679 3.592C19.5459 4.17992 19.1926 4.80485 18.9172 5.25547C18.7965 5.45284 18.6851 5.62595 18.5967 5.75995C18.6143 5.97769 18.5948 5.73939 18.5967 5.75995L16.7496 4.91418L16.7508 4.91254L16.7565 4.90428L16.7815 4.8681C16.8039 4.8356 16.837 4.78694 16.8782 4.72501C16.961 4.60085 17.0753 4.42496 17.2005 4.22012C17.3785 3.92901 17.5642 3.60222 17.7131 3.2931C17.6527 3.32121 17.5886 3.35198 17.5209 3.38564C17.5073 3.3924 17.4935 3.39885 17.4796 3.40499C16.8652 3.67631 16.3117 3.51727 15.9231 3.29868C15.6548 3.14775 15.3809 2.91658 15.1831 2.7497C15.1461 2.71843 15.1117 2.68941 15.0805 2.6636C14.6103 2.27428 14.1942 1.99486 13.5572 1.99486C12.1798 1.99486 11.3419 2.66739 10.8034 3.52163Z" fill="white"/>
</svg>
